<svg xmlns="http://www.w3.org/2000/svg" viewBox="0 0 32 32"><g class="nc-icon-wrapper"><path fill="#47c052" d="M30.146 2.927H20.39C19.658 1.22 17.951 0 16 0s-3.659 1.22-4.39 2.927H1.854A1.853 1.853 0 0 0 0 4.781v21.951c0 1.024.829 1.854 1.854 1.854h7.902v2.634H6.195c-.195 0-.39.146-.39.39s.146.39.39.39h19.512c.195 0 .39-.146.39-.39s-.146-.39-.341-.39h-3.561v-2.683h7.951A1.853 1.853 0 0 0 32 26.683V4.732c-.049-.976-.878-1.805-1.854-1.805zm0 .732c.585 0 1.122.488 1.122 1.122v19.61h-4.146a3.37 3.37 0 0 0-3.024-2.927l-3.61-9.073a3.31 3.31 0 0 0 2.78-3.268.384.384 0 0 0-.39-.39h-4.293c1.317-.829 2.244-2.341 2.244-4 0-.39-.049-.732-.146-1.122h9.463v.049zM15.951 9.512c.049 0 .049 0 0 0h6.439c-.146 1.22-1.22 2.195-2.537 2.195h-7.805c-1.268 0-2.341-.976-2.537-2.195h6.439zm-3.61 2.927h7.317l3.561 9.024H8.731l3.61-9.024zm-4.195 9.756h15.61c1.268 0 2.341.976 2.537 2.195H5.659c.146-1.22 1.22-2.195 2.488-2.195zM15.951.732C18.146.732 20 2.537 20 4.781c0 2.195-1.805 4-4 4h-.049c-2.195 0-4-1.805-4-4 0-2.244 1.805-4.049 4-4.049zM.732 4.78c0-.585.488-1.122 1.122-1.122h9.512a4.14 4.14 0 0 0-.146 1.122c0 1.707.878 3.171 2.244 4H9.171a.384.384 0 0 0-.39.39c0 1.659 1.22 2.976 2.78 3.268l-3.659 9.024c-1.561.098-2.829 1.366-3.024 2.927H.732V4.779zm20.731 26.44H10.487v-2.683h10.976v2.683zm9.757-4.488c0 .585-.488 1.122-1.122 1.122H1.805a1.135 1.135 0 0 1-1.122-1.122v-1.61H31.22v1.61z"></path><path fill="#47c052" d="M22.195 1.707h4.78c.195 0 .39-.146.39-.39s-.195-.341-.39-.341h-4.78c-.195 0-.39.146-.39.39s.195.341.39.341z"></path><path fill="#47c052" d="M28.927 1.707H30c.195 0 .39-.146.39-.39S30.195.976 30 .976h-1.073c-.195 0-.39.146-.39.39s.195.341.39.341z"></path><path fill="#47c052" d="M28.195 20.927h.585v.634c0 .195.146.39.39.39.195 0 .39-.146.39-.39v-.634h.634c.195 0 .39-.146.39-.39s-.146-.39-.39-.39h-.634v-.634a.384.384 0 0 0-.39-.39.384.384 0 0 0-.39.39v.634h-.634c-.195 0-.39.146-.39.39s.195.39.439.39z"></path><path fill="#47c052" d="M29.171 18a.39.39 0 1 0-.001-.781.39.39 0 0 0 .001.781z"></path><path fill="#47c052" d="M29.171 16.049a.39.39 0 1 0-.001-.781.39.39 0 0 0 .001.781z"></path><path fill="#47c052" d="M29.171 13.61a.39.39 0 1 0-.001-.781.39.39 0 0 0 .001.781z"></path><path fill="#47c052" d="M29.171 10.195a.39.39 0 1 0-.001-.781.39.39 0 0 0 .001.781z"></path><path fill="#47c052" d="M3.805 6.634h-.634V6c0-.195-.146-.39-.39-.39s-.341.195-.341.39v.634h-.585c-.195 0-.39.146-.39.39s.146.39.39.39h.585v.634c0 .195.146.39.39.39s.39-.146.39-.39v-.634h.634c.195 0 .39-.146.39-.39s-.244-.39-.439-.39z"></path><path fill="#47c052" d="M2.829 10.293a.39.39 0 1 0 0-.78.39.39 0 0 0 0 .78z"></path><path fill="#47c052" d="M2.829 12.244a.39.39 0 1 0 0-.78.39.39 0 0 0 0 .78z"></path><path fill="#47c052" d="M2.829 14.732a.39.39 0 1 0 0-.78.39.39 0 0 0 0 .78z"></path><path fill="#47c052" d="M2.829 18.146a.39.39 0 1 0 0-.78.39.39 0 0 0 0 .78z"></path></g></svg>