<svg xmlns="http://www.w3.org/2000/svg" viewBox="0 0 18 12"><g fill="currentColor" class="nc-icon-wrapper"><path fill-rule="evenodd" clip-rule="evenodd" d="M0 6c0-.177.065-.346.18-.471a.592.592 0 0 1 .435-.196h15.283L12.025 1.14a.715.715 0 0 1 0-.944.616.616 0 0 1 .2-.144.576.576 0 0 1 .671.144l4.923 5.333a.672.672 0 0 1 .134.217.716.716 0 0 1-.134.727l-4.922 5.333a.616.616 0 0 1-.2.144.576.576 0 0 1-.672-.144.715.715 0 0 1 0-.944l3.873-4.194H.615A.592.592 0 0 1 .18 6.47.696.696 0 0 1 0 6z" fill="currentColor" class="nc-icon-wrapper"></path></g></svg>