<svg xmlns="http://www.w3.org/2000/svg" viewBox="0 0 18 12"><g fill="none" class="nc-icon-wrapper"><path fill-rule="evenodd" clip-rule="evenodd" d="M18 6a.696.696 0 0 1-.18.471.592.592 0 0 1-.435.196H2.102l3.873 4.194a.672.672 0 0 1 .133.216.716.716 0 0 1-.133.728.614.614 0 0 1-.2.144.576.576 0 0 1-.671-.144L.18 6.472a.673.673 0 0 1-.134-.217.715.715 0 0 1 .134-.727L5.104.195a.615.615 0 0 1 .2-.144.575.575 0 0 1 .67.144.673.673 0 0 1 .134.217.716.716 0 0 1-.133.727L2.102 5.333h15.283c.163 0 .32.07.435.196.115.125.18.294.18.471z" fill="currentColor"></path></g></svg>