<svg xmlns="http://www.w3.org/2000/svg" viewBox="0 0 32 32"><g class="nc-icon-wrapper"><path fill="#47c052" d="M27.711 27.792l-.244-.049c2.388-3.523 5.801-10.226 3.948-17.761 0-.098-.195-1.076-.877-1.419-.244-.098-.585-.196-1.072.049-.292.147-.439.391-.536.734-.292-.098-.634-.147-.926-.098-.439.098-.78.44-.975.881-.195.489-.244 1.174-.292 2.006-.049.881-.098 1.957-.39 3.229-.682.294-.926.93-.926.979-1.414 3.229-1.95 3.621-2.583 4.11-.731.538-1.56 1.125-3.363 4.942l-.439-.147c-.097-.049-.195 0-.292.049s-.146.147-.146.245l-.829 6.018c0 .098 0 .196.097.294.049.098.146.147.292.147h8.676c.195 0 .341-.098.341-.294l.78-3.523c.049-.147-.049-.294-.244-.391zm-.147-15.56c.049-.783.097-1.419.244-1.761.098-.245.244-.391.487-.44.195-.049.439 0 .634.098 0 .245-.049.587-.049.93-.049 1.125-.097 2.691-.487 4.795-.097-.098-.195-.147-.292-.245a3.687 3.687 0 0 0-.877-.294 31.12 31.12 0 0 0 .341-3.083zm-4.24 8.857c.731-.538 1.365-.979 2.827-4.453 0 0 .195-.44.585-.587.292-.098.634-.049 1.024.147.097.049.39.196.341.93-.195 1.076-.634 2.544-2.242 5.186-.098.196-.049.391.098.489.049.049.146.049.195.049.146 0 .244-.049.292-.196 1.657-2.74 2.145-4.306 2.34-5.48.682-2.789.731-4.893.78-6.263.049-.832.049-1.664.244-1.761.244-.147.39-.049.39-.049.244.147.439.636.487.881 1.804 7.437-1.657 13.994-3.997 17.37l-6.483-1.908c1.755-3.376 2.486-3.914 3.12-4.355zm3.217 10.226h-7.945l.682-5.186 7.897 2.3-.634 2.887z"></path><path fill="#47c052" d="M24.64 30.336c.244.098.536-.049.634-.294s-.049-.538-.292-.636-.536.049-.634.294a.49.49 0 0 0 .292.636z"></path><path fill="#47c052" d="M13.185 25.346c-.098-.049-.195-.098-.292-.049l-.439.147c-1.852-3.817-2.632-4.404-3.363-4.942-.634-.489-1.219-.881-2.583-4.11 0-.049-.292-.685-.926-.979-.244-1.272-.341-2.349-.39-3.229s-.097-1.517-.292-2.055c-.195-.44-.536-.783-.975-.881-.292-.098-.634-.049-.926.049-.098-.342-.244-.587-.536-.734-.487-.245-.829-.147-1.072-.049-.682.342-.829 1.321-.877 1.37-1.804 7.584 1.56 14.239 3.948 17.761l-.244.049c-.195.049-.292.245-.244.44l.78 3.523c.049.147.195.294.341.294h8.628c.097 0 .195-.049.292-.147.049-.098.098-.196.098-.294l-.829-6.018c.049 0 0-.098-.097-.147zM3.728 9.982a.72.72 0 0 1 .487.44c.146.391.195.979.244 1.761.049.832.098 1.859.341 3.083-.292.049-.585.098-.877.294-.098.049-.195.147-.292.245-.39-2.104-.439-3.67-.487-4.795 0-.343 0-.636-.049-.93.195-.098.439-.147.634-.098zm-2.486.146c.049-.245.195-.734.487-.881.049-.049.195-.049.39.049s.244.93.244 1.761c.049 1.37.098 3.425.78 6.263.195 1.125.634 2.642 2.34 5.48.049.098.195.196.292.196.049 0 .146 0 .195-.049.195-.098.244-.343.097-.489-1.657-2.74-2.096-4.159-2.242-5.186-.049-.734.244-.881.341-.93.39-.196.731-.245 1.024-.147.39.147.585.587.585.587 1.462 3.425 2.096 3.865 2.827 4.404.634.489 1.365 1.028 3.071 4.55L5.19 27.644C2.899 24.121-.513 17.565 1.242 10.127zm4.241 21.187l-.682-2.887 7.897-2.3.682 5.186H5.483z"></path><path fill="#47c052" d="M11.43 29.407a.49.49 0 0 0-.292.636.488.488 0 0 0 .634.294.49.49 0 0 0 .292-.636c-.097-.245-.39-.391-.634-.294z"></path><path fill="#47c052" d="M29.319 4.893h-.682c-.195 0-.39.147-.39.391s.146.391.39.391h.682c.195 0 .39-.147.39-.391s-.146-.391-.39-.391z"></path><path fill="#47c052" d="M31.61 4.893h-.682c-.195 0-.39.147-.39.391s.146.391.39.391h.682c.195 0 .39-.147.39-.391s-.195-.391-.39-.391z"></path><path fill="#47c052" d="M30.148 5.676a.385.385 0 0 0-.39.391v.685c0 .196.146.391.39.391.195 0 .39-.147.39-.391v-.685c-.049-.196-.195-.391-.39-.391z"></path><path fill="#47c052" d="M30.148 3.425c-.244 0-.39.147-.39.391v.685c0 .196.146.391.39.391.195 0 .39-.147.39-.391v-.685c-.049-.245-.195-.391-.39-.391z"></path><path fill="#47c052" d="M23.811 2.202h.682c.195 0 .39-.147.39-.391s-.195-.343-.439-.343h-.682c-.195 0-.341.147-.341.391s.146.342.39.342z"></path><path fill="#47c052" d="M26.736 1.468h-.682c-.195 0-.39.147-.39.391s.146.391.39.391h.682c.195 0 .39-.147.39-.391s-.195-.391-.39-.391z"></path><path fill="#47c052" d="M25.273 3.67c.195 0 .39-.147.39-.391v-.636c0-.196-.146-.391-.39-.391s-.39.196-.39.391v.685c0 .196.146.343.39.343z"></path><path fill="#47c052" d="M25.273 1.419c.195 0 .39-.147.39-.391V.392c0-.196-.146-.391-.39-.391s-.39.147-.39.391v.685c0 .147.146.343.39.343z"></path><path fill="#47c052" d="M18.595 18.593h-.682c-.195 0-.39.147-.39.391s.146.391.39.391h.682c.195 0 .39-.147.39-.391s-.146-.391-.39-.391z"></path><path fill="#47c052" d="M20.886 18.593h-.682c-.195 0-.39.147-.39.391s.146.391.39.391h.682c.195 0 .39-.147.39-.391s-.195-.391-.39-.391z"></path><path fill="#47c052" d="M19.424 19.376a.385.385 0 0 0-.39.391v.685c0 .196.146.391.39.391.195 0 .39-.147.39-.391v-.685c-.049-.196-.195-.391-.39-.391z"></path><path fill="#47c052" d="M19.424 17.125a.385.385 0 0 0-.39.391v.685c0 .196.146.391.39.391.195 0 .39-.147.39-.391v-.685c-.049-.245-.195-.391-.39-.391z"></path><path fill="#47c052" d="M2.51 3.425h-.634c-.244 0-.39.147-.39.391s.146.391.39.391h.682c.195 0 .39-.147.39-.391s-.195-.391-.439-.391z"></path><path fill="#47c052" d="M4.801 3.425h-.682c-.195 0-.39.147-.39.391s.195.342.39.342h.682c.195 0 .39-.147.39-.391s-.195-.342-.39-.342z"></path><path fill="#47c052" d="M3.338 4.208a.385.385 0 0 0-.39.391v.685c0 .196.146.391.39.391.195 0 .39-.147.39-.391v-.685c-.049-.196-.195-.391-.39-.391z"></path><path fill="#47c052" d="M3.338 1.957c-.244 0-.39.147-.39.391v.685c0 .196.146.391.39.391.195 0 .39-.147.39-.391v-.685c-.049-.245-.195-.391-.39-.391z"></path><path fill="#47c052" d="M23.421 5.92a2.94 2.94 0 0 0-1.414.391V.391a.385.385 0 0 0-.39-.391h-4.29c-.146 0-.292.098-.341.245s0 .294.098.391c.439.391.682.93.682 1.517 0 .538-.244 1.076-.634 1.468a1.958 1.958 0 0 1-1.511.489c-.877-.098-1.657-.832-1.706-1.761a2.094 2.094 0 0 1 .682-1.713c.049 0 .049-.049.097-.098a.419.419 0 0 0 0-.343c-.097-.147-.195-.196-.341-.196H7.236c-.244 0-.39.147-.39.391v6.752c0 .147.097.294.244.343s.292 0 .39-.098c.39-.44.926-.685 1.511-.685.536 0 1.072.245 1.462.636.39.44.536.979.487 1.517-.098.881-.829 1.664-1.755 1.713a2.077 2.077 0 0 1-1.706-.685c-.049-.049-.097-.098-.195-.098-.097-.049-.244 0-.341.049s-.146.196-.146.294v4.746c0 .196.146.391.39.391h3.802a2.882 2.882 0 0 0-.39 1.713 2.702 2.702 0 0 0 2.388 2.398h.292c.682 0 1.316-.245 1.804-.685.585-.489.877-1.223.877-2.006 0-.489-.146-.979-.39-1.419h6.044c.097 0 .195-.049.244-.098s.098-.147.098-.245v-3.914c.487.294 1.072.44 1.706.391a2.7 2.7 0 0 0 2.388-2.398 2.582 2.582 0 0 0-.682-2.104c-.439-.685-1.17-.979-1.95-.979zm1.95 2.936c-.097.881-.829 1.664-1.755 1.713a2.077 2.077 0 0 1-1.706-.685c-.049-.049-.098-.098-.195-.098-.097-.049-.244 0-.341.049s-.146.196-.146.294v4.355h-6.434c-.146 0-.292.098-.341.245s0 .294.097.391c.439.391.682.93.682 1.517 0 .538-.244 1.076-.634 1.468a1.958 1.958 0 0 1-1.511.489c-.877-.098-1.657-.832-1.706-1.761a2.094 2.094 0 0 1 .682-1.713c.049-.049.049-.098.098-.147.049-.098.049-.245 0-.342s-.195-.196-.292-.196H7.628v-3.572c.487.294 1.072.44 1.706.391a2.7 2.7 0 0 0 2.388-2.398 2.582 2.582 0 0 0-.682-2.104c-.487-.587-1.219-.881-1.998-.881a2.94 2.94 0 0 0-1.414.391V.733h5.996a2.882 2.882 0 0 0-.39 1.713 2.702 2.702 0 0 0 2.388 2.398c.78.098 1.511-.147 2.096-.685a2.896 2.896 0 0 0 .829-2.006c0-.489-.146-.979-.39-1.419h3.12v6.361c0 .147.097.294.244.343s.292 0 .39-.098c.39-.44.926-.685 1.511-.685.536 0 1.072.245 1.462.636.39.44.536.979.487 1.566z"></path></g></svg>