<svg xmlns="http://www.w3.org/2000/svg" viewBox="0 0 32 32"><g fill="currentColor" class="nc-icon-wrapper"><path d="M17.379 8.854a4.078 4.078 0 1 1 5.768 5.767 4.078 4.078 0 0 1-5.768-5.767zm4.038 1.731a1.631 1.631 0 1 0-2.307 2.307 1.631 1.631 0 0 0 2.307-2.307zm9.75-6.802A4.486 4.486 0 0 0 28.213.83l-1.08-.335a11.013 11.013 0 0 0-11.051 2.73L14.457 4.85a5.706 5.706 0 0 0-7.454.533L4.976 7.41a1.223 1.223 0 0 0 0 1.73l2.596 2.595-.293.293a2.854 2.854 0 0 0 0 4.037l.808.808-2.277 1.299a1.222 1.222 0 0 0-.259 1.928l6.345 6.344a1.221 1.221 0 0 0 1.927-.257l1.302-2.276.811.811a2.854 2.854 0 0 0 4.037 0l.288-.288 2.593 2.593a1.224 1.224 0 0 0 1.731 0L26.612 25a5.706 5.706 0 0 0 .535-7.451l1.628-1.628a11.01 11.01 0 0 0 2.729-11.054l-.337-1.084zm-3.68-.616a2.04 2.04 0 0 1 1.343 1.342l.337 1.084a8.564 8.564 0 0 1-2.123 8.598l-8.802 8.801a.409.409 0 0 1-.577 0l-8.657-8.657a.409.409 0 0 1 0-.577l8.804-8.803a8.568 8.568 0 0 1 8.595-2.124l1.08.335zm-2.103 16.144a3.259 3.259 0 0 1-.503 3.959l-1.162 1.162-1.728-1.728 3.393-3.393zM8.733 7.113a3.26 3.26 0 0 1 3.962-.501l-3.393 3.393-1.73-1.73 1.162-1.162zm4.598 15.005l-.837 1.464-4.079-4.078 1.466-.836 3.451 3.45zm-6.339 4.621a1.223 1.223 0 1 0-1.73-1.73l-4.038 4.037a1.223 1.223 0 1 0 1.73 1.73l4.038-4.037zm-3.173-4.902a1.223 1.223 0 0 1 0 1.73l-1.73 1.73a1.223 1.223 0 1 1-1.73-1.73l1.73-1.73a1.223 1.223 0 0 1 1.73 0zm6.342 8.078a1.223 1.223 0 1 0-1.73-1.73l-1.727 1.727a1.223 1.223 0 1 0 1.73 1.73l1.727-1.727z"></path></g></svg>