<svg xmlns="http://www.w3.org/2000/svg" viewBox="0 0 32 32"><g class="nc-icon-wrapper"><path fill="#4453f6" d="M4.723 11.352c.533 0 .914-.457.914-.914V8.533c0-.533-.457-.914-.914-.914-.533 0-.914.381-.914.914v1.905c-.076.533.381.914.914.914zm3.734 0c.533 0 .914-.457.914-.914V6.552c0-.533-.457-.914-.914-.914-.533 0-.914.381-.914.914v3.886c-.076.533.381.914.914.914zm3.733 0c.533 0 .914-.457.914-.914V4.724c0-.533-.381-.914-.914-.914s-.914.457-.914.914v5.714c0 .533.381.914.914.914zm-2.743 9.372c0-2.057-1.676-3.733-3.733-3.733s-3.81 1.676-3.81 3.733c0 2.057 1.752 3.733 3.81 3.733 2.057.076 3.733-1.676 3.733-3.733zm-3.733 1.905a1.886 1.886 0 0 1-1.905-1.905c0-.99.914-1.905 1.905-1.905 1.067 0 1.905.838 1.905 1.905-.076 1.067-.914 1.905-1.905 1.905zm13.105-1.905c0-2.057-1.676-3.733-3.733-3.733s-3.733 1.676-3.733 3.733a3.739 3.739 0 0 0 3.733 3.733c2.057.076 3.733-1.676 3.733-3.733zm-3.734 1.905c-1.067 0-1.905-.838-1.905-1.905s.838-1.905 1.905-1.905c1.067 0 1.905.838 1.905 1.905-.076 1.067-.914 1.905-1.905 1.905zm11.277-11.277a5.435 5.435 0 0 0-3.733 1.448V.914c0-.533-.457-.914-.914-.914H.915C.458 0 .001.381.001.914v13.257c0 .533.457.914.914.914h20.114c-.229.61-.305 1.219-.305 1.905v8.914a4.001 4.001 0 0 0-.914 1.067c-1.067-1.524-2.743-2.514-4.724-2.514s-3.657.99-4.724 2.514c-.99-1.524-2.743-2.514-4.724-2.514-3.124 0-5.714 2.514-5.714 5.638v.914c.076.533.533.99.99.99h30.095c.533 0 .914-.457.914-.914V16.99c.076-3.124-2.438-5.638-5.562-5.638zm-5.639 1.905H1.904V1.905h18.895v11.352h-.076zM1.904 30.095c0-2.057 1.676-3.733 3.81-3.733a3.739 3.739 0 0 1 3.733 3.733H1.904zm9.372 0a3.739 3.739 0 0 1 3.733-3.733c2.133 0 3.81 1.676 3.81 3.733h-7.543zm9.447 0c0-2.057 1.676-3.733 3.733-3.733s3.733 1.676 3.733 3.733h-7.467zm9.372 0a5.625 5.625 0 0 0-5.638-5.638c-.686 0-1.295.076-1.905.305v-.838c.533.305 1.219.533 1.905.533 2.057 0 3.733-1.676 3.733-3.733s-1.676-3.733-3.733-3.733c-.686 0-1.295.152-1.905.533v-.533c0-2.057 1.676-3.733 3.733-3.733s3.733 1.676 3.733 3.733v13.105h.076zm-7.467-9.371c0-1.067.838-1.905 1.905-1.905s1.905.838 1.905 1.905c0 1.067-.838 1.905-1.905 1.905s-1.905-.838-1.905-1.905zm3.734-9.372c2.057 0 3.733-1.752 3.733-3.886 0-2.057-1.676-3.733-3.733-3.733s-3.733 1.676-3.733 3.733c0 2.133 1.676 3.886 3.733 3.886zm0-5.714c1.067 0 1.905.838 1.905 1.905s-.914 1.981-1.905 1.981c-.99 0-1.905-.914-1.905-1.981.076-1.067.914-1.905 1.905-1.905z"></path></g></svg>