<svg xmlns="http://www.w3.org/2000/svg" viewBox="0 0 22 22"><g fill="none" class="nc-icon-wrapper"><path d="M20.04 19.44l.555.504-.555-.504zm-1.64 1.18l-.284-.694-.005.002.289.692zm-8.65-2.33l-.442.606.442-.606zm-3.28-2.8l-.533.528.005.005.528-.533zm-2.79-3.27l-.609.438.003.003.606-.441zM1.72 8.81l-.691.291v.002l.691-.293zm-.36-5.2l.696.279.002-.004-.698-.275zm1.15-1.67l.515.546.005-.006.006-.006-.526-.534zm2.89-.76l-.325.676.01.005.315-.681zm.67.56l-.617.427.005.007.612-.434zm2.32 3.27l-.612.434.003.004.609-.438zm.4.7l-.694.284.005.011.689-.295zm-.07 1.32l-.64-.39-.007.01-.006.011.653.369zm-.56.71l-.53-.53-.005.005-.005.005.54.52zm-.76.79l.53.53.005-.005.005-.005-.54-.52zm-.13.63l-.728.182.01.041.016.04.702-.263zm.08.2l-.712.237.022.064.032.058.658-.359zm.93 1.28l-.573.484.006.007.567-.491zm1.45 1.58l-.535.525.005.005.005.005.525-.535zm1.59 1.47l-.485.572.485-.572zm1.29.92l-.35.663.034.018.037.015.279-.696zm.18.08l-.295.69.016.006.016.006.263-.702zm.66-.13l-.527-.534-.003.004.53.53zm.76-.75l.527.534.003-.004-.53-.53zm.72-.56l.347.665.022-.011.021-.013-.39-.641zm2.02.31l.434-.612-.006-.004-.006-.004-.422.62zm3.31 2.35l-.434.612.007.005.427-.617zm.55.64l.696-.279-.004-.011-.005-.012-.687.302zM19 3h.75a.75.75 0 0 0-.75-.75V3zm-.75 4.8a.75.75 0 0 0 1.5 0h-1.5zM14.2 2.25a.75.75 0 0 0 0 1.5v-1.5zm6.02 15.08c0 .248-.055.508-.178.77l1.356.64c.217-.458.322-.938.322-1.41h-1.5zm-.178.77c-.14.297-.32.574-.558.836l1.112 1.008c.342-.378.602-.78.802-1.204l-1.356-.64zm-.557.836c-.424.467-.875.787-1.37.99l.57 1.388c.725-.297 1.354-.757 1.91-1.37l-1.11-1.008zm-1.373.992a4.271 4.271 0 0 1-1.662.322v1.5c.795 0 1.544-.148 2.239-.438l-.578-1.384zm-1.662.322c-.901 0-1.891-.212-2.966-.67l-.588 1.38c1.225.522 2.415.79 3.554.79v-1.5zm-2.966-.67a16.817 16.817 0 0 1-3.293-1.896l-.882 1.212c1.18.86 2.38 1.55 3.587 2.064l.588-1.38zm-3.292-1.896a28.002 28.002 0 0 1-3.194-2.727l-1.056 1.066a29.497 29.497 0 0 0 3.366 2.873l.884-1.212zm-3.19-2.722a27.667 27.667 0 0 1-2.716-3.183l-1.212.882a29.16 29.16 0 0 0 2.863 3.357l1.066-1.056zm-2.713-3.18C3.495 10.68 2.865 9.587 2.41 8.517l-1.38.586c.505 1.19 1.195 2.378 2.041 3.555l1.218-.876zM2.41 8.52C1.963 7.454 1.75 6.463 1.75 5.54H.25c0 1.157.267 2.346.779 3.561l1.382-.582zM1.75 5.54c0-.591.104-1.146.306-1.651L.664 3.33A5.923 5.923 0 0 0 .25 5.54h1.5zm.308-1.655c.197-.501.512-.97.967-1.4l-1.03-1.09a5.352 5.352 0 0 0-1.333 1.94l1.396.55zm.978-1.41c.527-.52 1.046-.725 1.554-.725V.25c-.972 0-1.853.414-2.606 1.156l1.052 1.068zM4.59 1.75c.175 0 .343.038.485.106l.65-1.352A2.629 2.629 0 0 0 4.59.25v1.5zm.496.111a.88.88 0 0 1 .367.306l1.234-.854A2.38 2.38 0 0 0 5.714.5l-.628 1.362zm.372.313l2.32 3.27 1.224-.868-2.32-3.27-1.224.868zm2.323 3.274c.153.212.251.391.315.546l1.388-.568A4.167 4.167 0 0 0 9 4.572l-1.218.876zm.32.557c.06.142.079.25.079.315h1.5c0-.316-.081-.627-.2-.905l-1.38.59zm.079.315a.61.61 0 0 1-.1.32l1.28.78c.205-.336.32-.709.32-1.1h-1.5zm-.113.341a2.666 2.666 0 0 1-.437.549l1.06 1.06c.274-.274.511-.567.683-.871l-1.306-.738zm-.447.559l-.76.79 1.08 1.04.76-.79-1.08-1.04zM6.87 8c-.263.262-.38.588-.38.93h1.5s0 .023-.014.058a.222.222 0 0 1-.046.072L6.87 8zm-.38.93c0 .151.02.283.052.412l1.456-.364c-.008-.03-.008-.039-.008-.048h-1.5zm.078.493c.021.058.043.108.055.137.015.034.016.039.015.037l1.424-.474c-.021-.062-.045-.117-.058-.148l-.032-.078-1.404.526zm.124.296c.215.395.562.87 1.015 1.405l1.146-.969c-.427-.504-.7-.89-.845-1.154l-1.316.718zm1.02 1.412c.459.529.95 1.07 1.483 1.614l1.07-1.05a33.41 33.41 0 0 1-1.418-1.546l-1.134.982zm1.493 1.624c.546.536 1.08 1.04 1.63 1.507l.97-1.144c-.51-.433-1.016-.91-1.55-1.433l-1.05 1.07zm1.63 1.507c.543.46 1.019.796 1.424 1.01l.702-1.325c-.275-.145-.659-.408-1.156-.83l-.97 1.145zm1.496 1.044l.049.022.115.051.59-1.378-.08-.037a2.574 2.574 0 0 0-.117-.05l-.556 1.392zm.196.086c.19.071.365.088.513.088v-1.5h-.016a.135.135 0 0 1 .03.008l-.527 1.404zm.513.088c.38 0 .697-.147.94-.39l-1.06-1.06a.182.182 0 0 1 .054-.034.187.187 0 0 1 .066-.016v1.5zm.937-.386l.76-.75-1.054-1.068-.76.75 1.054 1.068zm.763-.754c.22-.22.399-.353.537-.425l-.694-1.33a3.797 3.797 0 0 0-.903.695l1.06 1.06zm.58-.45a.585.585 0 0 1 .32-.1v-1.5a2.08 2.08 0 0 0-1.1.32l.78 1.28zm.32-.1c.08 0 .184.016.326.074l.568-1.388a2.344 2.344 0 0 0-.894-.186v1.5zm.326.074c.157.064.34.165.562.316l.844-1.24a4.612 4.612 0 0 0-.838-.464l-.568 1.388zm.55.307l3.31 2.35.868-1.223-3.31-2.35-.868 1.223zm3.317 2.356c.164.113.244.22.29.325l1.373-.604a2.265 2.265 0 0 0-.81-.955l-.853 1.234zm.28.301c.073.182.107.337.107.502h1.5a2.8 2.8 0 0 0-.214-1.058l-1.392.556zM18.25 3v4.8h1.5V3h-1.5zm.75-.75h-4.8v1.5H19v-1.5z" fill="currentColor"></path></g></svg>