<svg xmlns="http://www.w3.org/2000/svg" viewBox="0 0 30 32"><g fill="currentColor" class="nc-icon-wrapper"><path fill="currentColor" d="M.41 23.587c.054-.226.09-.461.163-.687.569-1.853 1.78-3.036 3.678-3.443 2.322-.497 4.663-.958 6.995-1.437.09-.018.172-.045.262-.072v-.813h-.38c-.958 0-1.916.009-2.883 0-1.202-.018-2.079-.831-2.097-2.024-.018-2.223-.054-4.455.018-6.669.145-3.976 3.054-7.356 6.995-8.224C18.294-.912 23.31 2.712 23.87 7.954c.036.343.054.696.054 1.048.009 1.988 0 3.976 0 5.964 0 1.328-.858 2.178-2.187 2.178h-3.154v.831c.768.154 1.536.316 2.304.47 1.627.334 3.253.66 4.871 1.003 2.368.506 3.877 2.322 3.904 4.735.027 2.323.009 4.654.009 6.977 0 .596-.244.831-.849.831-9.182 0-18.363 0-27.545.009-.398 0-.669-.145-.849-.479C.41 28.873.41 26.234.41 23.587zm19.466-7.817h1.844c.624 0 .859-.244.859-.868 0-1.988.009-3.976 0-5.964 0-.416-.018-.84-.09-1.247-.75-4.256-4.591-6.94-8.847-6.208-3.308.569-5.964 3.533-6.1 6.895-.081 2.042-.027 4.085-.036 6.127 0 .217 0 .434.018.642.027.298.199.551.488.569.714.036 1.428.009 2.178.009-.045-.081-.072-.136-.108-.19-.578-.813-.994-1.708-1.066-2.711-.072-1.102-.054-2.214-.045-3.317 0-.352.307-.569.714-.578.687-.009 1.374 0 2.069 0a7.463 7.463 0 0 0 2.801-.569c.922-.38 1.717-.94 2.431-1.636.316-.307.723-.298.994-.009.253.271.244.669-.054.967-.099.099-.226.181-.37.289a4.299 4.299 0 0 0 2.729.958c.642.009.868.235.868.886v2.133c-.009.94-.19 1.844-.605 2.684-.208.389-.434.732-.669 1.139zm1.22 4.102c-.849-.172-1.672-.343-2.539-.524V23.189c0 .136 0 .271-.036.407a.662.662 0 0 1-.696.524.653.653 0 0 1-.614-.651c-.009-.633 0-1.274 0-1.97-1.464.958-2.883.967-4.311.018v9.1h4.311v-1.789c0-.289.163-.497.425-.596s.542-.072.714.154c.127.172.199.407.208.615.027.542.009 1.075.009 1.618.036.027.072.045.108.072.099-.099.235-.181.298-.307.958-1.807 1.907-3.615 2.856-5.422.045-.09.081-.181.145-.316-.298 0-.551.018-.813 0-.47-.036-.732-.37-.66-.831.072-.479.154-.958.226-1.437.127-.831.244-1.654.37-2.503zm7.185 10.754a.52.52 0 0 0 .027-.127c0-2.16.036-4.311-.018-6.47-.036-1.554-1.021-2.802-2.449-3.172-1.112-.28-2.241-.488-3.407-.732-.163 1.057-.325 2.088-.488 3.163h.976c.777 0 1.057.461.696 1.157-1.012 1.934-2.033 3.868-3.046 5.811-.063.117-.117.235-.181.37h7.889zm-18.599.009c-.072-.145-.117-.244-.172-.343-1.021-1.943-2.042-3.895-3.064-5.838-.362-.678-.072-1.148.705-1.148h.967c-.163-1.084-.325-2.106-.488-3.154-1.066.217-2.079.407-3.091.633-1.735.38-2.774 1.699-2.774 3.497v6.353h7.916zm10.095-20.351a5.744 5.744 0 0 1-3.317-1.41c-1.88 1.265-3.958 1.545-6.163 1.41 0 .651-.009 1.247 0 1.835a4.736 4.736 0 0 0 3.759 4.537c2.124.452 4.311-.642 5.26-2.612.578-1.193.452-2.458.461-3.759zM8.968 19.872c.199 1.274.389 2.503.578 3.732.117.75-.127 1.048-.868 1.048h-.524c0 .072-.009.09 0 .108 1.003 1.907 1.997 3.814 3.009 5.72.045.09.199.127.343.199V19.347c-.858.181-1.681.343-2.539.524zm3.914-2.042c0 .28-.018.624 0 .958.045.877.479 1.527 1.274 1.88.804.361 1.572.244 2.25-.307.84-.687.84-1.627.777-2.53-.732.099-1.446.262-2.16.262-.705-.009-1.41-.172-2.142-.262z"></path></g></svg>