<svg xmlns="http://www.w3.org/2000/svg" viewBox="0 0 22 22"><g fill="none" class="nc-icon-wrapper"><path fill-rule="evenodd" clip-rule="evenodd" d="M11 1.75c-5.106 0-9.25 4.144-9.25 9.25s4.144 9.25 9.25 9.25 9.25-4.144 9.25-9.25S16.106 1.75 11 1.75zM.25 11C.25 5.066 5.066.25 11 .25S21.75 5.066 21.75 11 16.934 21.75 11 21.75.25 16.934.25 11z" fill="currentColor"></path><path fill-rule="evenodd" clip-rule="evenodd" d="M10.63 5.76a.75.75 0 0 1 .75.75v4.1c0 .154.058.376.189.605.13.228.292.392.423.47l.002.001 3.1 1.85a.75.75 0 1 1-.768 1.288l-3.099-1.849c-.409-.243-.737-.624-.961-1.017-.225-.394-.386-.872-.386-1.348v-4.1a.75.75 0 0 1 .75-.75z" fill="currentColor"></path></g></svg>