<svg xmlns="http://www.w3.org/2000/svg" viewBox="0 0 60 60"><g fill="none" class="nc-icon-wrapper"><path d="M10.002 53.747c-2.028 0-3.72-2.283-3.75-3.774a1.25 1.25 0 1 0-2.5.05c.057 2.82 2.857 6.224 6.25 6.224a1.25 1.25 0 0 0 0-2.5z" fill="currentColor"></path><path d="M58.746 33.75H44.997c-.69 0-1.25.56-1.25 1.25v12.342a.464.464 0 0 1-.023.156H16.407a.156.156 0 0 1-.156-.156V35c0-.69-.559-1.25-1.25-1.25H1.252c-.69 0-1.249.56-1.249 1.25v16.247c0 4.825 3.925 8.75 8.749 8.75h42.495c4.825 0 8.75-3.925 8.75-8.75V35c0-.69-.56-1.25-1.25-1.25zm-1.25 2.5v3.749H46.248v-3.75h11.248zm-43.745 0v3.749H2.502v-3.75h11.249zm43.745 14.998a6.256 6.256 0 0 1-6.249 6.249H8.752a6.257 6.257 0 0 1-6.25-6.25V42.5h11.249v4.843a2.659 2.659 0 0 0 2.656 2.656h27.34c1.426 0 2.5-1.142 2.5-2.656V42.5h11.249v8.748z" fill="currentColor"></path><path d="M24.494 24.929l-1.829 3.201a1.25 1.25 0 0 0 1.444 1.818l8.164-2.45c7.586.142 13.975-6.015 13.975-13.747 0-7.58-6.168-13.748-13.749-13.748-7.58 0-13.748 6.168-13.748 13.748 0 4.434 2.173 8.612 5.743 11.178zm8.005-22.426c6.203 0 11.248 5.046 11.248 11.249C43.747 19.954 38.702 25 32.5 25c-.369 0-.497-.031-.753.046l-5.358 1.607.86-1.508c.34-.593.14-1.35-.45-1.696a11.305 11.305 0 0 1-5.548-9.698c0-6.203 5.047-11.249 11.249-11.249z" fill="currentColor"></path><path d="M27.5 15.002h3.749v3.75a1.25 1.25 0 0 0 2.5 0v-3.75h3.749a1.25 1.25 0 1 0 0-2.5h-3.75v-3.75a1.25 1.25 0 1 0-2.5 0v3.75H27.5a1.25 1.25 0 1 0 0 2.5z" fill="currentColor"></path><path d="M26.25 32.5a1.25 1.25 0 1 0 0 2.499 1.25 1.25 0 0 0 0-2.5z" fill="currentColor"></path><path d="M26.25 37.5a1.25 1.25 0 1 0 0 2.498 1.25 1.25 0 0 0 0-2.498z" fill="currentColor"></path><path d="M31.249 35a1.249 1.249 0 1 0 0 2.498 1.249 1.249 0 0 0 0-2.498z" fill="currentColor"></path><path d="M31.249 39.999a1.25 1.25 0 1 0 .001 2.5 1.25 1.25 0 0 0-.001-2.5z" fill="currentColor"></path><path d="M7.502 22.5a3.754 3.754 0 0 0 3.75-3.748 3.754 3.754 0 0 0-3.75-3.75 3.754 3.754 0 0 0-3.75 3.75 3.753 3.753 0 0 0 3.75 3.749zm0-4.998a1.25 1.25 0 0 1 0 2.5 1.25 1.25 0 0 1 0-2.5z" fill="currentColor"></path><path d="M51.247 30a3.753 3.753 0 0 0 3.75-3.75 3.753 3.753 0 0 0-3.75-3.75 3.754 3.754 0 0 0-3.749 3.75 3.754 3.754 0 0 0 3.75 3.75zm0-5a1.25 1.25 0 0 1 0 2.5 1.251 1.251 0 0 1 0-2.5z" fill="currentColor"></path><path d="M54.996 8.752a3.754 3.754 0 0 0 3.75-3.75 3.754 3.754 0 0 0-3.75-3.749 3.754 3.754 0 0 0-3.749 3.75 3.754 3.754 0 0 0 3.75 3.75zm0-4.999a1.25 1.25 0 0 1 0 2.5 1.251 1.251 0 0 1 0-2.5z" fill="currentColor"></path></g></svg>