<svg xmlns="http://www.w3.org/2000/svg" viewBox="0 0 58 60"><g fill="none" class="nc-icon-wrapper"><path d="M46.708 12.5H46.5v-10c0-.69-.56-1.25-1.25-1.25-30.844.002-28.847-.024-29.115.055-.193.058-.369.165-.506.299-.05.049-7.489 7.487-7.525 7.526-.226.231-.354.549-.354.87v42.5c0 .69.56 1.25 1.25 1.25h32.747l2.354 5.493a1.25 1.25 0 0 0 2.297 0l3.75-8.75c.067-.156.102-.323.102-.493V16.042a3.546 3.546 0 0 0-3.542-3.542zm-3.958 8.75h5v1.25h-5v-1.25zm5-5.208v2.708h-5v-2.708c0-.575.467-1.042 1.042-1.042h2.916c.574 0 1.042.467 1.042 1.042zM15.25 5.517V8.75h-3.233l3.233-3.233zm-5 45.733v-40h6.25c.69 0 1.25-.56 1.25-1.25V3.75H44v8.75h-.208a3.546 3.546 0 0 0-3.542 3.542V50c0 .17.034.337.101.493l.325.757H10.25zm35 4.328l-2.5-5.834V25h5v24.744l-2.5 5.834z" fill="currentColor"></path><path d="M14 18.75h12.5a1.25 1.25 0 1 0 0-2.5H14a1.25 1.25 0 0 0 0 2.5z" fill="currentColor"></path><path d="M14 22.5h12.5a1.25 1.25 0 1 0 0-2.5H14a1.25 1.25 0 0 0 0 2.5z" fill="currentColor"></path><path d="M36.5 23.75H14a1.25 1.25 0 0 0 0 2.5h22.5a1.25 1.25 0 1 0 0-2.5z" fill="currentColor"></path><path d="M36.5 27.5H14a1.25 1.25 0 0 0 0 2.5h22.5a1.25 1.25 0 1 0 0-2.5z" fill="currentColor"></path><path d="M36.5 31.25H14a1.25 1.25 0 0 0 0 2.5h22.5a1.25 1.25 0 1 0 0-2.5z" fill="currentColor"></path><path d="M36.5 35H14a1.25 1.25 0 0 0 0 2.5h22.5a1.25 1.25 0 1 0 0-2.5z" fill="currentColor"></path><path d="M36.5 38.75H14a1.25 1.25 0 0 0 0 2.5h22.5a1.25 1.25 0 1 0 0-2.5z" fill="currentColor"></path><path d="M34 46.25h-.477l.345-.69a1.251 1.251 0 0 0-1.421-1.772l-2.364.59.035-.069a1.25 1.25 0 0 0-1.422-1.771l-4.999 1.25a1.25 1.25 0 0 0 .606 2.426l2.363-.591-.034.068a1.25 1.25 0 0 0 1.42 1.772l2.365-.59-.035.068A1.25 1.25 0 0 0 31.5 48.75H34a1.25 1.25 0 1 0 0-2.5z" fill="currentColor"></path><path d="M54 6.25A3.754 3.754 0 0 0 50.25 10 3.754 3.754 0 0 0 54 13.75 3.754 3.754 0 0 0 57.75 10 3.754 3.754 0 0 0 54 6.25zm0 5a1.251 1.251 0 0 1 0-2.5 1.251 1.251 0 0 1 0 2.5z" fill="currentColor"></path><path d="M3.375 41.25A3.13 3.13 0 0 0 .25 44.375 3.128 3.128 0 0 0 3.375 47.5 3.128 3.128 0 0 0 6.5 44.375a3.13 3.13 0 0 0-3.125-3.125zm0 3.75a.626.626 0 0 1 0-1.25.626.626 0 0 1 0 1.25z" fill="currentColor"></path><path d="M10.25 3.75A3.754 3.754 0 0 0 6.5 0a3.754 3.754 0 0 0-3.75 3.75A3.754 3.754 0 0 0 6.5 7.5a3.754 3.754 0 0 0 3.75-3.75zM6.5 5A1.25 1.25 0 1 1 6.5 2.498 1.25 1.25 0 0 1 6.5 5z" fill="currentColor"></path><path d="M55.25 22.5a1.25 1.25 0 1 0 0 2.5 1.25 1.25 0 0 0 0-2.5z" fill="currentColor"></path><path d="M55.25 37.5a1.25 1.25 0 1 0 0 2.5 1.25 1.25 0 0 0 0-2.5z" fill="currentColor"></path><path d="M34 55a1.25 1.25 0 1 0 0 2.501 1.25 1.25 0 0 0 0-2.5z" fill="currentColor"></path><path d="M5.25 31.25a1.25 1.25 0 1 0 0 2.5 1.25 1.25 0 0 0 0-2.5z" fill="currentColor"></path><path d="M2.75 16.25a1.25 1.25 0 1 0 0-2.5 1.25 1.25 0 0 0 0 2.5z" fill="currentColor"></path></g></svg>