<svg xmlns="http://www.w3.org/2000/svg" viewBox="0 0 38 39"><g fill="none" class="nc-icon-wrapper"><path d="M10.862 29.777c3.346 1.021 5.778 4.001 5.778 7.538 0 .113-.004.193-.016.36l-.001.017-.006.089a1.04 1.04 0 0 1-2.077-.122l.008-.113.001-.018a3 3 0 0 0 .011-.213c0-3.208-2.78-5.833-6.24-5.835-3.46.002-6.24 2.627-6.24 5.835 0 .054.003.11.012.23v.014l.007.092a1.04 1.04 0 1 1-2.075.138l-.006-.08-.001-.015A4.81 4.81 0 0 1 0 37.315c0-3.537 2.432-6.517 5.778-7.538a5.201 5.201 0 1 1 7.742-4.537 5.198 5.198 0 0 1-2.658 4.537zm.578-4.537a3.12 3.12 0 1 0-6.242.001 3.12 3.12 0 0 0 6.242 0zm10.862-15.223c3.346 1.021 5.778 4.001 5.778 7.538 0 .113-.004.193-.016.36l-.001.017-.006.089a1.04 1.04 0 0 1-2.077-.122l.008-.113.001-.018a3 3 0 0 0 .011-.213c0-3.208-2.78-5.833-6.24-5.835-3.46.002-6.24 2.627-6.24 5.835 0 .054.003.11.011.23l.002.014.006.092a1.04 1.04 0 1 1-2.075.138l-.006-.08-.001-.015a4.832 4.832 0 0 1-.017-.379c0-3.537 2.432-6.517 5.778-7.538A5.201 5.201 0 1 1 24.96 5.48a5.198 5.198 0 0 1-2.658 4.537zM37.44 37.315c0 .113-.004.193-.016.36l-.001.017-.006.089a1.04 1.04 0 0 1-2.077-.122l.008-.113.001-.018a3 3 0 0 0 .011-.213c0-3.208-2.78-5.833-6.24-5.835-3.46.002-6.24 2.627-6.24 5.835 0 .054.003.11.012.23v.014l.007.092a1.04 1.04 0 1 1-2.075.138l-.006-.08-.001-.015a4.832 4.832 0 0 1-.017-.379c0-3.537 2.432-6.517 5.778-7.538a5.201 5.201 0 1 1 7.742-4.537 5.198 5.198 0 0 1-2.658 4.537c3.346 1.021 5.778 4.001 5.778 7.538zm-5.2-12.074a3.12 3.12 0 1 0-6.242 0 3.12 3.12 0 0 0 6.242 0zM22.88 5.48a3.12 3.12 0 1 0-6.242 0 3.12 3.12 0 0 0 6.242 0z" fill="currentColor"></path></g></svg>