<svg xmlns="http://www.w3.org/2000/svg" viewBox="0 0 32 32"><g class="nc-icon-wrapper"><path fill="#4453f6" d="M30.095 20.876v-1.067c0-3.581-2.971-6.552-6.552-6.552-.305 0-.61 0-.914.076V.914c0-.533-.457-.914-.914-.914H.915C.382 0 .001.381.001.914v22.552c0 .533.381.914.914.914h14.171v4.724c0 1.524 1.295 2.819 2.819 2.819h11.276c1.524 0 2.819-1.295 2.819-2.819V23.39c0-1.143-.762-2.133-1.905-2.514zm-6.552-5.79c2.59 0 4.724 2.133 4.724 4.724v.914h-1.905v-.914c0-1.524-1.295-2.819-2.819-2.819s-2.819 1.295-2.819 2.819v.914h-1.905v-.914c.076-2.667 2.133-4.724 4.724-4.724zm.99 4.647v.914h-1.905v-.914c0-.533.457-.914.914-.914.533 0 .99.381.99.914zM1.905 1.905H20.8v5.714H1.905V1.905zm0 7.543H20.8v4.419a5.982 5.982 0 0 0-1.752 1.219H1.905V9.448zm13.409 13.104H1.904v-5.638h15.771c-.305.61-.457 1.219-.533 1.905h-.99c-.533 0-.914.381-.914.914s.457.914.914.914h.914v.152c-.838.305-1.524.99-1.752 1.752zm14.781 6.629c0 .533-.457.914-.914.914H17.905c-.533 0-.914-.457-.914-.914v-5.714c0-.533.457-.914.914-.914h11.276c.533 0 .914.457.914.914v5.714zm-6.552-4.724c-.533 0-.914.457-.914.914v1.905c0 .533.457.914.914.914.533 0 .914-.457.914-.914v-1.905c.076-.533-.381-.914-.914-.914zM6.552 3.733H4.723c-.533 0-.914.457-.914.914 0 .533.457.914.914.914h1.905c.533 0 .914-.457.914-.914-.076-.457-.457-.914-.99-.914zm5.791 0h-1.981c-.533 0-.914.457-.914.914 0 .533.457.914.914.914h1.981c.533 0 .914-.457.914-.914s-.457-.914-.914-.914zm5.562 0H16c-.533 0-.914.457-.914.914 0 .533.457.914.914.914h1.905c.533 0 .914-.457.914-.914.076-.457-.381-.914-.914-.914zM6.552 11.276H4.723c-.533 0-.914.457-.914.914 0 .533.457.914.914.914h1.905c.533 0 .914-.457.914-.914-.076-.457-.457-.914-.99-.914zm5.791 0h-1.981c-.533 0-.914.457-.914.914 0 .533.457.914.914.914h1.981c.533 0 .914-.457.914-.914s-.457-.914-.914-.914zm5.562 0H16c-.533 0-.914.457-.914.914 0 .533.457.914.914.914h1.905c.533 0 .914-.457.914-.914.076-.457-.381-.914-.914-.914zM6.552 18.819H4.723c-.533 0-.914.381-.914.914s.457.914.914.914h1.905c.533 0 .914-.457.914-.914-.076-.533-.457-.914-.99-.914zm5.791 0h-1.981c-.533 0-.914.381-.914.914s.457.914.914.914h1.981c.533 0 .914-.457.914-.914 0-.533-.457-.914-.914-.914z"></path></g></svg>