<svg xmlns="http://www.w3.org/2000/svg" viewBox="0 0 32 32"><g class="nc-icon-wrapper"><path fill="#4453f6" d="M31.055 21.541h-.945V5.854a2.824 2.824 0 0 0-2.836-2.806H4.656c-1.527 0-2.764 1.223-2.764 2.806v15.759H.947c-.509-.072-.945.36-.945.864v1.871c0 2.519 2.109 4.605 4.655 4.605h22.618c2.618 0 4.655-2.087 4.655-4.605v-1.871c.073-.504-.364-.935-.873-.935zM3.782 5.854c0-.504.436-.935.945-.935h22.618c.509 0 .945.432.945.935v15.759h-6.545a.957.957 0 0 0-.945.935v.935h-9.527v-1.007a.957.957 0 0 0-.945-.935H3.783V5.854zm26.327 18.493a2.824 2.824 0 0 1-2.836 2.806H4.655c-1.527 0-2.836-1.223-2.836-2.806v-.935H9.31v.935c0 .504.436.935.945.935H21.6a.957.957 0 0 0 .945-.935v-.935h7.491v.935h.073zM26.4 18.806a.957.957 0 0 0-.945-.935H8.873l5.309-5.181 3.055 3.022c.364.36.945.36 1.309 0l3.782-3.742c.364.144.8.288 1.236.288 1.527 0 2.836-1.223 2.836-2.806a2.824 2.824 0 0 0-2.836-2.806c-1.527 0-2.836 1.223-2.836 2.806 0 .432.073.864.291 1.223l-3.127 3.022-3.127-3.022a.928.928 0 0 0-1.309 0l-5.964 5.829V7.653c0-.504-.436-.935-.945-.935s-.945.432-.945.935v11.081c0 .504.436.935.945.935h18.909c.509 0 .945-.36.945-.863zM23.564 8.588c.509 0 .946.432.946.935s-.436.935-.946.935c-.509 0-.945-.432-.945-.935s.436-.935.945-.935z"></path></g></svg>