<svg xmlns="http://www.w3.org/2000/svg" viewBox="0 0 70 58"><g fill="none" class="nc-icon-wrapper"><path d="M9.978 54.166c4.875 4.32 11.051 4.055 13.005.53-3.098-2.427-9.518-1.7-13.005-.53z" fill="currentColor"></path><path d="M15.54 50.326c-2.166-3.055-7.713-4.03-11.4-3.855 2.514 4.15 8.287 6.89 11.4 3.855z" fill="currentColor"></path><path d="M9.882 43.914c-1.197-3.38-5.592-5.572-9.096-6.287 1.377 4.664 5.763 7.97 9.096 6.287z" fill="currentColor"></path><path d="M6.424 36.1c.051-3.219-3.69-6.525-6.424-7.914.174 4.338 2.852 8.532 6.424 7.914z" fill="currentColor"></path><path d="M5.495 27.62c.327-1.205.172-2.364-.287-3.487-.064-.194-.184-.403-.234-.651-.643-1.526-1.792-3.131-3.116-4.313-.925 3.628.347 8.029 3.637 8.45z" fill="currentColor"></path><path d="M7.176 19.26c1.418-2.202.34-6.02-1.098-8.291-1.696 3.007-1.572 7.096 1.098 8.29z" fill="currentColor"></path><path d="M11.297 11.855c1.832-1.56 1.793-5.097 1.055-7.354-2.104 2.132-3.055 5.636-1.055 7.354z" fill="currentColor"></path><path d="M20.03 0c-3.02 1.826-3.583 4.553-2.568 6.004C19.404 5.12 20.206 2.164 20.03 0z" fill="currentColor"></path><path d="M22.772 52.229c2.358-2.417 1.84-6.789.694-9.92-4.158 5.16-3.006 8.705-.694 9.92z" fill="currentColor"></path><path d="M16.163 48.027c2.82-1.527 3.586-6.08 3.2-8.771a13.702 13.702 0 0 0-2.21 1.87c-1.895 2.013-2.916 4.91-.99 6.9z" fill="currentColor"></path><path d="M16.273 35.068c-5.37 1.835-6.192 5.08-5.131 7.013 2.872-.632 4.592-4.162 5.13-7.013z" fill="currentColor"></path><path d="M14.438 29.927c-5.118.258-6.795 2.977-6.38 4.911 2.828.18 5.458-2.81 6.38-4.91z" fill="currentColor"></path><path d="M14.263 24.296c-2.873-.661-6.485-.113-6.845 2.728 2.292.857 5.366-.954 6.845-2.728z" fill="currentColor"></path><path d="M9.03 19.35c1.76 1.3 4.895.564 6.707-.708-3.535-1.899-6.044-.874-6.708.709z" fill="currentColor"></path><path d="M12.878 12.519c1.22 1.565 4.131 1.65 6 1.039-2.468-2.374-4.888-2.325-6-1.04z" fill="currentColor"></path><path d="M18.567 7.126c.722 1.665 3.059 2.358 4.957 2.285-1.663-2.743-3.94-3.008-4.957-2.285z" fill="currentColor"></path><path d="M22.852 53.015C3.821 45.268.201 16.839 20.35 5.317l-.12-.208C-.872 16.9 3.202 47.333 24.364 54.365l.208-.766c-.601-.163-1.133-.366-1.72-.584z" fill="currentColor"></path><path d="M59.594 54.166c-4.874 4.32-11.051 4.055-13.005.53 3.099-2.427 9.518-1.7 13.005-.53z" fill="currentColor"></path><path d="M54.033 50.326c2.165-3.055 7.712-4.03 11.4-3.855-2.515 4.15-8.288 6.89-11.4 3.855z" fill="currentColor"></path><path d="M59.69 43.914c1.197-3.38 5.592-5.572 9.097-6.287-1.377 4.664-5.764 7.97-9.097 6.287z" fill="currentColor"></path><path d="M63.148 36.1c-.051-3.219 3.69-6.525 6.424-7.914-.174 4.338-2.852 8.532-6.424 7.914z" fill="currentColor"></path><path d="M64.077 27.62c-.327-1.205-.171-2.364.287-3.487.065-.194.184-.403.234-.651.643-1.526 1.793-3.131 3.116-4.313.925 3.628-.347 8.029-3.637 8.45z" fill="currentColor"></path><path d="M62.397 19.26c-1.42-2.202-.341-6.02 1.097-8.291 1.696 3.007 1.573 7.096-1.097 8.29z" fill="currentColor"></path><path d="M58.275 11.855c-1.832-1.56-1.793-5.097-1.055-7.354 2.105 2.132 3.055 5.636 1.055 7.354z" fill="currentColor"></path><path d="M49.542 0c3.02 1.826 3.583 4.553 2.568 6.004-1.942-.884-2.744-3.84-2.568-6.004z" fill="currentColor"></path><path d="M46.8 52.229c-2.357-2.417-1.84-6.789-.694-9.92 4.158 5.16 3.007 8.705.694 9.92z" fill="currentColor"></path><path d="M53.41 48.027c-2.821-1.527-3.586-6.08-3.2-8.771.794.549 1.548 1.167 2.208 1.87 1.896 2.013 2.917 4.91.992 6.9z" fill="currentColor"></path><path d="M53.3 35.068c5.37 1.835 6.19 5.08 5.13 7.013-2.871-.632-4.592-4.162-5.13-7.013z" fill="currentColor"></path><path d="M55.134 29.927c5.118.258 6.795 2.977 6.38 4.911-2.827.18-5.458-2.81-6.38-4.91z" fill="currentColor"></path><path d="M55.31 24.296c2.873-.661 6.485-.113 6.844 2.728-2.292.857-5.366-.954-6.844-2.728z" fill="currentColor"></path><path d="M60.543 19.35c-1.76 1.3-4.896.564-6.708-.708 3.535-1.899 6.044-.874 6.708.709z" fill="currentColor"></path><path d="M56.694 12.519c-1.219 1.565-4.131 1.65-5.999 1.039 2.468-2.374 4.888-2.325 6-1.04z" fill="currentColor"></path><path d="M51.005 7.126c-.722 1.665-3.058 2.358-4.957 2.285 1.663-2.743 3.94-3.008 4.957-2.285z" fill="currentColor"></path><path d="M46.72 53.015c19.031-7.747 22.651-36.176 2.504-47.698l.119-.208C70.445 16.9 66.37 47.333 45.208 54.365L45 53.6c.602-.163 1.133-.366 1.72-.584z" fill="currentColor"></path></g></svg>