<svg xmlns="http://www.w3.org/2000/svg" viewBox="0 0 22 24"><g fill="currentColor" class="nc-icon-wrapper"><path d="M21.81 5.243c-.108-.504-.36-.971-.719-1.295l-3.166-2.914C17.601.746 17.241.53 16.81.458c-.18-.036-.36-.072-.54-.072H5.477a2.41 2.41 0 0 0-2.41 2.41v1.979c0 .216.144.36.36.36s.36-.144.36-.36V2.796c0-.935.755-1.691 1.691-1.691h10.901V2.22c0 .216.144.36.36.36s.36-.144.36-.36v-.899c.108.072.216.144.324.252l3.13 2.914c.144.144.252.288.36.468h-3.238a.63.63 0 0 1-.612-.612v-.36c0-.216-.144-.36-.36-.36s-.36.144-.36.36v.36c0 .719.612 1.331 1.331 1.331h3.418v3.993c0 .216.144.36.36.36s.36-.144.36-.36V5.71a1.027 1.027 0 0 0 0-.468z"></path><path d="M21.486 10.963c-.216 0-.36.144-.36.36v10.253c0 .935-.755 1.691-1.691 1.691H5.512a1.689 1.689 0 0 1-1.691-1.691v-.108h2.051c.216 0 .36-.144.36-.36s-.144-.36-.36-.36H1.663a.607.607 0 0 1-.612-.612v-6.044h15.29c.36 0 .612.288.612.612V20.1c0 .36-.288.612-.612.612H7.455c-.216 0-.36.144-.36.36s.144.36.36.36h8.886c.755 0 1.331-.612 1.331-1.331v-5.396c0-.755-.612-1.331-1.331-1.331H3.821v-6.62c0-.216-.144-.36-.36-.36s-.36.144-.36.36v2.77L.367 13.517c-.036.036-.036.108-.036.18v6.404c0 .755.612 1.331 1.331 1.331h1.439v.108a2.41 2.41 0 0 0 2.41 2.41h13.923a2.41 2.41 0 0 0 2.41-2.41V11.323a.36.36 0 0 0-.36-.36zm-20.11 2.41l1.763-2.518v2.518H1.376z"></path><path d="M6.053 4.451h7.663c.216 0 .36-.144.36-.36s-.144-.36-.36-.36H6.053c-.216 0-.36.144-.36.36s.144.36.36.36z"></path><path d="M6.053 7.005h9.426c.216 0 .36-.144.36-.36s-.144-.36-.36-.36H6.053c-.216 0-.36.144-.36.36s.144.36.36.36z"></path><path d="M6.053 9.524h12.771c.216 0 .36-.144.36-.36s-.144-.36-.36-.36H6.053c-.216 0-.36.144-.36.36s.144.36.36.36z"></path><path d="M18.824 11.358h-7.555c-.216 0-.36.144-.36.36s.144.36.36.36h7.555c.216 0 .36-.144.36-.36s-.18-.36-.36-.36z"></path><path d="M6.053 12.078h3.382c.216 0 .36-.144.36-.36s-.144-.36-.36-.36H6.053c-.216 0-.36.144-.36.36s.144.36.36.36z"></path><path d="M13.931 15.999c.216 0 .36-.144.36-.36s-.144-.36-.36-.36h-1.907c-.216 0-.36.144-.36.36v3.454c0 .216.144.36.36.36s.36-.144.36-.36v-1.331h1.547c.216 0 .36-.144.36-.36s-.144-.36-.36-.36h-1.547v-1.043h1.547z"></path><path d="M4.074 15.28c-.036 0-.108 0-.144.036-.144.072-.216.18-.216.324v3.454c0 .216.144.36.36.36s.36-.144.36-.36v-1.187h.755c.36 0 .684-.144.935-.396s.396-.576.396-.935c0-.719-.576-1.331-1.331-1.331H4.074v.036zm1.691 1.331c0 .144-.072.324-.18.432s-.252.18-.432.18h-.755v-1.187h.755c.36-.036.612.216.612.576z"></path><path d="M7.779 19.525h.324c.576 0 1.115-.216 1.511-.612s.612-.935.612-1.511a2.127 2.127 0 0 0-2.123-2.123h-.324c-.216 0-.36.144-.36.36v3.526c0 .216.144.36.36.36zm.36-3.526c.755.036 1.367.648 1.367 1.403 0 .36-.144.719-.396 1.007a1.39 1.39 0 0 1-.971.396v-2.806z"></path></g></svg>