<svg xmlns="http://www.w3.org/2000/svg" viewBox="0 0 25 32"><g fill="currentColor" class="nc-icon-wrapper"><path d="M8.673 32c-.174-.152-.366-.276-.521-.446a72.615 72.615 0 0 1-1.91-2.194c-.219-.268-.439-.33-.768-.285-1.015.134-2.029.25-3.053.357-.731.071-1.033-.339-.768-.999.804-2.016 1.609-4.031 2.422-6.038a.81.81 0 0 0 0-.651 20.782 20.782 0 0 1-.539-1.668 2.927 2.927 0 0 0-1.289-1.721 21.708 21.708 0 0 1-1.408-.972C.08 16.821-.166 16.09.126 15.198c.183-.553.375-1.106.576-1.65.247-.678.238-1.338 0-2.016-.229-.651-.457-1.293-.64-1.962-.21-.776.128-1.391.74-1.855.466-.348.941-.678 1.435-.99a2.961 2.961 0 0 0 1.298-1.748c.146-.535.32-1.061.503-1.579.366-.91.932-1.311 1.92-1.338.585-.018 1.17-.009 1.764.009A2.982 2.982 0 0 0 9.76 1.4c.439-.348.887-.678 1.362-.99.823-.553 1.581-.553 2.413 0 .466.312.914.642 1.353.99a3.021 3.021 0 0 0 2.047.669 29.737 29.737 0 0 1 1.792-.018c.932.027 1.536.455 1.855 1.32.192.535.366 1.088.521 1.641.21.722.622 1.284 1.261 1.703.484.312.951.633 1.408.972.786.589 1.015 1.266.731 2.203a26.667 26.667 0 0 1-.567 1.623c-.256.696-.247 1.382 0 2.078.229.642.457 1.302.631 1.962.174.651-.055 1.231-.567 1.659-.457.375-.941.722-1.444 1.035-.804.491-1.307 1.159-1.536 2.06-.137.553-.366 1.088-.53 1.632a.638.638 0 0 0 .046.41c.804 2.033 1.627 4.067 2.441 6.1.265.669-.037 1.07-.768.999a84.418 84.418 0 0 1-2.989-.348c-.357-.054-.603 0-.85.303-.622.767-1.289 1.498-1.947 2.239-.128.143-.302.25-.457.375h-.32c-.274-.125-.43-.339-.539-.615-.795-2.016-1.609-4.022-2.413-6.038-.073-.178-.137-.285-.375-.285-.229 0-.311.089-.384.268-.786 1.98-1.581 3.951-2.367 5.922-.119.294-.238.571-.521.74C8.928 32 8.8 32 8.672 32zM7.028 3.309H6.023c-.384-.009-.631.161-.74.517-.128.392-.274.785-.375 1.195-.311 1.284-1.033 2.256-2.194 2.952-.402.241-.768.517-1.143.794-.219.169-.311.392-.21.669.165.473.311.954.494 1.418.42 1.088.466 2.167.046 3.264-.165.437-.329.883-.475 1.32-.183.535-.128.705.338 1.043.311.232.64.455.978.651 1.152.678 1.856 1.65 2.175 2.925.11.437.265.856.411 1.275a.58.58 0 0 0 .594.428c.503 0 1.005.018 1.499-.009 1.307-.08 2.431.303 3.419 1.133.347.294.731.544 1.106.794a.659.659 0 0 0 .777 0c.347-.241.713-.464 1.033-.74 1.042-.892 2.239-1.293 3.62-1.195.457.036.914.009 1.371.009a.59.59 0 0 0 .594-.428c.146-.41.302-.82.402-1.249.32-1.311 1.051-2.292 2.23-2.988.384-.223.74-.499 1.097-.758.229-.169.32-.401.219-.687-.165-.464-.302-.936-.484-1.382-.466-1.15-.466-2.292 0-3.434.146-.366.274-.74.402-1.115.201-.589.137-.776-.384-1.142a20.115 20.115 0 0 0-1.033-.687c-1.024-.633-1.691-1.507-1.993-2.649a20.165 20.165 0 0 0-.402-1.311c-.183-.508-.32-.598-.868-.606-.448 0-.896 0-1.344.018-.969.036-1.892-.107-2.715-.66-.375-.259-.731-.535-1.097-.803-1.042-.776-1.069-.767-2.111 0-.521.383-1.042.767-1.6 1.079-.759.419-1.627.41-2.633.357zm1.599 26.845c.74-1.855 1.462-3.657 2.175-5.458.027-.08-.037-.232-.11-.294-.293-.241-.612-.455-.905-.696-.631-.535-1.371-.722-2.194-.705-.777.018-1.545 0-2.367 0-.658 1.641-1.335 3.327-2.029 5.075.905-.107 1.737-.178 2.569-.303.503-.08.85.036 1.17.428.53.66 1.097 1.275 1.691 1.953zm7.395 0c.631-.722 1.225-1.382 1.801-2.069.238-.285.512-.384.868-.33.795.107 1.59.196 2.377.285.11.009.219.018.375.027-.695-1.739-1.38-3.425-2.029-5.048-.74 0-1.435.036-2.121-.009-.996-.062-1.874.169-2.623.829-.274.241-.75.41-.823.696-.082.294.201.696.338 1.035a976.637 976.637 0 0 0 1.837 4.584z"></path><path d="M20.757 12.548c-.037 4.557-3.812 8.232-8.455 8.214s-8.428-3.657-8.409-8.241c.037-4.584 3.83-8.241 8.464-8.205 4.653.036 8.437 3.746 8.4 8.232zm-15.558-.026c-.027 3.817 3.163 6.957 7.102 6.974 3.93.018 7.111-3.059 7.157-6.921.046-3.817-3.172-6.983-7.12-7.001-3.912-.018-7.111 3.095-7.139 6.948z"></path><path d="M15.592 16.259c0 .589-.475.874-.978.624-.686-.33-1.362-.687-2.038-1.043a.467.467 0 0 0-.503 0c-.649.348-1.307.669-1.947 1.008-.274.143-.539.196-.804.009-.274-.196-.293-.464-.238-.758.128-.731.265-1.454.375-2.185a.425.425 0 0 0-.119-.339 62.31 62.31 0 0 0-1.6-1.525c-.229-.214-.384-.455-.274-.776s.384-.41.704-.455c.74-.098 1.481-.196 2.212-.321a.46.46 0 0 0 .293-.223c.347-.642.667-1.302.996-1.953.137-.285.329-.499.676-.491.329.009.503.214.64.491.32.66.649 1.311.996 1.953a.496.496 0 0 0 .32.232c.74.125 1.472.214 2.212.321.302.045.567.143.667.446.11.303-.027.544-.247.749-.539.508-1.079 1.008-1.6 1.534a.517.517 0 0 0-.128.392c.101.696.238 1.4.356 2.096.018.089.027.178.027.214zm-.475-4.362c-.466-.071-.923-.152-1.38-.196-.384-.036-.622-.223-.777-.553a31.61 31.61 0 0 0-.64-1.266c-.247.482-.466.892-.667 1.32-.146.303-.366.464-.704.499-.475.054-.951.134-1.408.205.347.366.676.714 1.015 1.061.219.214.311.446.247.758-.101.473-.165.945-.256 1.48.484-.25.905-.446 1.307-.678.32-.178.612-.178.932 0 .402.223.823.428 1.298.669-.082-.473-.128-.883-.229-1.284-.119-.455.009-.794.375-1.106.32-.268.585-.589.887-.91z"></path></g></svg>