<svg xmlns="http://www.w3.org/2000/svg" viewBox="0 0 12 10"><g fill="none" class="nc-icon-wrapper"><path fill-rule="evenodd" clip-rule="evenodd" d="M6 2.69a2.092 2.092 0 1 0 0 4.182A2.092 2.092 0 0 0 6 2.69zm-.896 2.09a.896.896 0 1 1 1.792 0 .896.896 0 0 1-1.792 0z" fill="currentColor"></path><path fill-rule="evenodd" clip-rule="evenodd" d="M6 0C3.677 0 2.173 1.173 1.272 2.32A7.659 7.659 0 0 0 .118 4.4a4.73 4.73 0 0 0-.069.21l-.001.004v.002l.574.165-.575-.165L0 4.781l.047.164.575-.164-.575.164v.003l.001.001.001.003a1.799 1.799 0 0 0 .018.057 6.905 6.905 0 0 0 .263.671c.19.425.494.992.942 1.562.901 1.147 2.405 2.32 4.728 2.32s3.827-1.173 4.728-2.32a7.654 7.654 0 0 0 1.154-2.08 4.822 4.822 0 0 0 .067-.203l.002-.007V4.95l.001-.002v-.002c.001 0 .001-.001-.573-.165l.574.165L12 4.78l-.047-.164-.574.164.574-.164v-.003l-.002-.005a.638.638 0 0 0-.018-.057 6.846 6.846 0 0 0-.263-.671 7.654 7.654 0 0 0-.942-1.561C9.827 1.173 8.323 0 6 0zM1.418 5.188a5.78 5.78 0 0 1-.167-.407 6.464 6.464 0 0 1 .96-1.722C2.955 2.113 4.142 1.194 6 1.194c1.86 0 3.046.919 3.788 1.863a6.465 6.465 0 0 1 .96 1.723 6.464 6.464 0 0 1-.96 1.722C9.046 7.448 7.86 8.367 6 8.367c-1.86 0-3.046-.92-3.788-1.864a6.464 6.464 0 0 1-.794-1.315z" fill="currentColor"></path></g></svg>