<svg xmlns="http://www.w3.org/2000/svg" viewBox="0 0 37 32"><g fill="currentColor" class="nc-icon-wrapper"><path d="M30.313 6.973c-2.546-3.282-7.658-2.732-9.447 1.017-.939 1.968-3.74 1.968-4.679 0-1.789-3.749-6.901-4.299-9.447-1.017l-.521.672a7.08 7.08 0 0 0 .746 9.499l11.561 10.861 11.562-10.861a7.079 7.079 0 0 0 .746-9.499l-.521-.672zM18.526 5.319C21.856.432 29.185.025 32.974 4.908l.521.672a10.446 10.446 0 0 1-1.101 14.019l-11.71 11-.034.032c-.171.161-.377.355-.575.507a2.52 2.52 0 0 1-1.063.501 2.528 2.528 0 0 1-.973 0 2.532 2.532 0 0 1-1.063-.501 8.214 8.214 0 0 1-.575-.507l-.034-.032-11.71-11A10.447 10.447 0 0 1 3.556 5.58l.521-.672C7.866.025 15.196.432 18.525 5.319z"></path></g></svg>