<svg xmlns="http://www.w3.org/2000/svg" viewBox="0 0 42 39"><g fill="none" class="nc-icon-wrapper"><path d="M12.026 12.444a9.25 9.25 0 0 1 1.62.733c.77.44 1.329.887 1.65 1.208a1.04 1.04 0 0 1-1.471 1.47 4.02 4.02 0 0 0-.288-.248 7.206 7.206 0 0 0-.923-.624c-.99-.566-2.086-.903-3.254-.903-4.637 0-7.28 3.436-7.28 7.28a1.04 1.04 0 0 1-2.08 0c0-4.056 2.363-7.82 6.547-8.989a6.24 6.24 0 1 1 5.479.072zm13.119 18.892a7.281 7.281 0 0 1-9.508-10.979 7.28 7.28 0 0 1 10.979 9.508l6.649 6.649a1.04 1.04 0 0 1-1.471 1.47l-6.65-6.648zm-.85-1.995a1.04 1.04 0 0 1 .326-.326 5.2 5.2 0 1 0-.326.326zM13.52 6.801a4.16 4.16 0 1 0-8.322 0 4.16 4.16 0 0 0 8.322 0zm7.28-3.12a1.04 1.04 0 1 1 0-2.08h19.76a1.04 1.04 0 1 1 0 2.08H20.8zm0 5.2a1.04 1.04 0 1 1 0-2.08h19.76a1.04 1.04 0 1 1 0 2.08H20.8zm0 5.2a1.04 1.04 0 0 1 0-2.08h10.4a1.04 1.04 0 1 1 0 2.08H20.8z" fill="currentColor"></path></g></svg>