<svg xmlns="http://www.w3.org/2000/svg" viewBox="0 0 25 32"><g fill="currentColor" class="nc-icon-wrapper"><path d="M16.61 15.672c.61-.947.966-2.088.966-3.314 0-3.29-2.56-5.958-5.717-5.958s-5.717 2.667-5.717 5.958c0 3.29 2.56 5.958 5.717 5.958a5.531 5.531 0 0 0 3.18-1.006l3.802 3.962.103.093.011.009a1.079 1.079 0 0 0 1.447-.112 1.192 1.192 0 0 0 0-1.637l-3.791-3.951zm-4.751-6.956c1.93 0 3.495 1.631 3.495 3.642S13.789 16 11.859 16c-1.93 0-3.495-1.631-3.495-3.642s1.565-3.642 3.495-3.642zM3.838 0C1.718 0 0 1.791 0 4v24c0 2.209 1.718 4 3.838 4h20.343c.636 0 1.151-.537 1.151-1.2s-.516-1.2-1.151-1.2H3.838c-.848 0-1.535-.716-1.535-1.6h21.879c.636 0 1.151-.537 1.151-1.2V4c0-2.209-1.719-4-3.838-4H3.838zM23.03 25.6H2.303V4c0-.884.687-1.6 1.535-1.6h17.657c.848 0 1.535.716 1.535 1.6v21.6z"></path></g></svg>