<svg xmlns="http://www.w3.org/2000/svg" viewBox="0 0 32 32"><g class="nc-icon-wrapper"><path fill="#4453f6" d="M31.238 4.495l-3.124-.686a1.03 1.03 0 0 0-1.143.686c-.152.533.229.99.686 1.143l.914.229-5.714 3.581v-4.8a.837.837 0 0 0-.457-.762L16.533.153C16.381.077 16.152.001 16 .001s-.381.076-.457.152L9.676 3.886a.837.837 0 0 0-.457.762v4.8L3.352 5.791l.914-.229c.533-.152.838-.61.686-1.143-.076-.457-.533-.762-1.067-.61l-3.124.686c-.533.076-.838.61-.762 1.143l.762 3.124c.152.533.61.838 1.143.686s.838-.61.686-1.143l-.229-.914 6.019 3.81-4.648 2.895a.837.837 0 0 0-.457.762v6.552c0 .305.152.61.457.762l5.867 3.733a.8.8 0 0 0 .99 0l4.419-2.819v5.638l-.533-.533c-.381-.381-.99-.381-1.295 0-.381.381-.381.99 0 1.295l2.133 2.133a.965.965 0 0 0 1.371 0l2.133-2.133c.381-.381.381-.99 0-1.295-.381-.381-.99-.381-1.295 0l-.533.533v-5.638l4.419 2.819a.8.8 0 0 0 .99 0l5.867-3.733a.837.837 0 0 0 .457-.762v-6.552a.837.837 0 0 0-.457-.762l-4.648-2.895 6.019-3.81-.229.99c-.076.533.229.99.686 1.143a1.03 1.03 0 0 0 1.143-.686l.762-3.2c.076-.533-.229-1.067-.762-1.143zm-16.152 8.686l-4.038-2.514V6.4l4.038 2.514v4.267zm1.828 0V8.914L20.952 6.4v4.267l-4.038 2.514zM16 2.057l4.114 2.59L16 7.237l-4.114-2.59L16 2.057zm-5.867 10.21l4.114 2.59-4.114 2.667-4.114-2.59 4.114-2.667zM5.181 16.61l4.038 2.514v4.343l-4.038-2.514V16.61zm5.867 2.514l4.038-2.514v4.343l-4.038 2.514v-4.343zm5.866-2.514l4.038 2.514v4.343l-4.038-2.514V16.61zm5.943 6.857v-4.343l4.038-2.514v4.343l-4.038 2.514zm-.99-5.943l-4.114-2.59 4.114-2.59 4.114 2.59-4.114 2.59z"></path></g></svg>