<svg xmlns="http://www.w3.org/2000/svg" viewBox="0 0 42 40"><g fill="none" class="nc-icon-wrapper"><path fill-rule="evenodd" clip-rule="evenodd" d="M0 1a1 1 0 0 1 1-1h40a1 1 0 1 1 0 2h-2.32v22.94a7.242 7.242 0 0 1-2.902 5.801l-10.419 7.8a7.27 7.27 0 0 1-8.698 0l-10.42-7.8A7.242 7.242 0 0 1 3.34 24.94V2H1a1 1 0 0 1-1-1zm5.34 1v22.94c0 1.648.774 3.21 2.098 4.199l10.42 7.8a5.27 5.27 0 0 0 6.303 0l10.42-7.8a5.242 5.242 0 0 0 2.099-4.199V2H5.34zM12 12a1 1 0 0 1 1-1h16a1 1 0 1 1 0 2H13a1 1 0 0 1-1-1zm0 10a1 1 0 0 1 1-1h16a1 1 0 1 1 0 2H13a1 1 0 0 1-1-1z" fill="currentColor"></path></g></svg>