<svg xmlns="http://www.w3.org/2000/svg" viewBox="0 0 41 40"><g fill="none" class="nc-icon-wrapper"><path fill-rule="evenodd" clip-rule="evenodd" d="M24.134.261c2.23.754 3.745 3.207 3.25 5.527l-.995 6.363c-.108.777.404 1.253 1.011 1.253h8c1.77 0 3.29.715 4.205 1.957.917 1.245 1.134 2.895.541 4.567l-4.785 14.556c-.375 1.454-1.332 2.676-2.495 3.527-1.173.858-2.626 1.393-4.066 1.393h-7.6a8.815 8.815 0 0 1-2.325-.338c-.74-.212-1.556-.557-2.132-1.106l-4.927-3.814c-.186.765-.527 1.426-1.088 1.943-.932.86-2.251 1.115-3.728 1.115H5c-1.477 0-2.796-.255-3.728-1.115C.32 35.21 0 33.917 0 32.404v-19.6c0-1.513.32-2.806 1.272-3.685C2.204 8.26 3.523 8.004 5 8.004h2c1.477 0 2.796.255 3.728 1.115.753.695 1.111 1.65 1.227 2.769l6.613-9.839.001-.001c.546-.818 1.444-1.434 2.406-1.765.964-.33 2.1-.413 3.159-.022zM12 15.341V31.76l6.062 4.693.045.045c.222.222.679.463 1.318.645a6.825 6.825 0 0 0 1.775.262h7.6c.96 0 2.007-.365 2.884-1.007.877-.641 1.513-1.506 1.746-2.435l.009-.036 4.815-14.646.004-.012c.402-1.124.217-2.069-.263-2.72-.485-.66-1.366-1.144-2.595-1.144h-8c-1.791 0-3.278-1.522-2.99-3.541l.002-.013 1.005-6.432.007-.03c.28-1.265-.59-2.785-1.94-3.235l-.018-.006-.017-.007c-.537-.201-1.193-.182-1.824.035-.637.219-1.138.602-1.393.984l-.002.003-8.2 12.2-.03-.02zM2.628 10.59C2.28 10.91 2 11.517 2 12.804v19.6c0 1.287.28 1.894.628 2.215.368.34 1.049.585 2.372.585h2c1.323 0 2.004-.245 2.372-.585.348-.321.628-.928.628-2.215v-19.6c0-1.287-.28-1.894-.628-2.215-.368-.34-1.049-.585-2.372-.585H5c-1.323 0-2.004.245-2.372.585z" fill="currentColor"></path></g></svg>