<svg xmlns="http://www.w3.org/2000/svg" viewBox="0 0 29 32"><g fill="currentColor" class="nc-icon-wrapper"><path d="M14.55 2.545c4.97.003 9.828 2.894 11.12 8.604 1.538 6.792-2.671 12.669-6.644 16.485l-.002.002a6.463 6.463 0 0 1-8.973-.001c-3.959-3.816-8.168-9.707-6.631-16.5 1.299-5.71 6.16-8.594 11.13-8.59zm13.248 8.123C26.24 3.782 20.341.367 14.551.363S2.858 3.766 1.292 10.652c-1.808 7.985 3.175 14.633 7.245 18.555l.001.001c3.359 3.226 8.653 3.229 12-.001 4.084-3.922 9.067-10.554 7.26-18.539zm-13.253-.574a3.447 3.447 0 1 0 0 6.893 3.447 3.447 0 0 0 0-6.893zm-5.629 3.447a5.629 5.629 0 1 1 11.258 0 5.629 5.629 0 0 1-11.258 0z"></path></g></svg>