<svg xmlns="http://www.w3.org/2000/svg" viewBox="0 0 32 32"><g fill="currentColor" class="nc-icon-wrapper"><path d="M29.911 0H1.98C1.43 0 .935.221.55.607.22.938 0 1.49 0 1.986v22.676c0 .552.22 1.048.605 1.434s.88.607 1.43.607h7.973v3.972h-1.32c-.385 0-.66.276-.66.662s.275.662.66.662h14.625c.385 0 .66-.276.66-.662s-.275-.662-.66-.662h-1.32v-3.972h7.973c.55 0 1.045-.221 1.43-.607s.605-.883.605-1.434V1.986c0-.552-.22-1.048-.605-1.434-.44-.331-.99-.552-1.485-.552zm-9.292 30.676h-9.347v-3.972h9.292v3.972h.055zm9.292-5.352H2.035a.637.637 0 0 1-.66-.662v-1.986h7.313c.385 0 .66-.276.66-.662s-.275-.662-.66-.662H1.32V2.042c0-.386.33-.717.66-.717h27.876a.67.67 0 0 1 .495.221.7.7 0 0 1 .22.497v19.31h-7.313c-.385 0-.66.276-.66.662s.275.662.66.662h7.313v1.986a.676.676 0 0 1-.22.497.625.625 0 0 1-.44.166z"></path><path d="M25.072 10.869a.698.698 0 0 0-.495-.221h-1.1c-.11-.276-.22-.552-.33-.772l.77-.772a.636.636 0 0 0 0-.938l-2.804-2.814a.631.631 0 0 0-.935 0l-.77.772c-.275-.11-.495-.221-.77-.331V4.69a.676.676 0 0 0-.22-.497.698.698 0 0 0-.495-.221h-3.959a.637.637 0 0 0-.66.662v1.103c-.275.11-.55.221-.77.331l-.77-.772a.631.631 0 0 0-.935 0L8.025 8.11a.636.636 0 0 0 0 .938l.77.772c-.11.276-.22.497-.33.772h-1.1a.637.637 0 0 0-.66.662v3.972c0 .166.055.331.22.497.11.11.275.221.495.221h1.1c.11.276.22.552.33.772l-.77.772a.636.636 0 0 0 0 .938l2.804 2.814c.275.276.66.276.935 0l.77-.772c.275.11.495.221.77.331v1.159c0 .166.055.331.22.497.11.11.275.221.495.221h3.959a.67.67 0 0 0 .495-.221.7.7 0 0 0 .22-.497v-1.103c.275-.11.55-.221.77-.331l.77.772c.275.276.66.276.935 0l2.804-2.814c.11-.11.22-.276.22-.497s-.055-.331-.22-.497l-.935-.717c.11-.276.22-.497.33-.772h1.1a.67.67 0 0 0 .495-.221.7.7 0 0 0 .22-.497v-3.972a.625.625 0 0 0-.165-.441zm-1.154 3.807h-.935a.716.716 0 0 0-.66.441c-.165.497-.33.993-.605 1.434-.165.276-.11.607.11.772l.66.662-1.869 1.876-.66-.662c-.22-.221-.55-.276-.77-.11-.44.276-.935.441-1.43.607-.275.11-.495.386-.495.662v.938h-2.639v-.883c0-.331-.165-.607-.495-.662-.495-.166-.99-.331-1.43-.607-.275-.166-.605-.11-.77.11l-.66.662-1.924-1.876.66-.662a.67.67 0 0 0 .11-.828c-.275-.441-.44-.938-.605-1.434-.11-.276-.385-.497-.66-.497h-.935v-2.648h.935c.33 0 .605-.166.66-.497.165-.497.33-.993.605-1.434.165-.276.11-.607-.11-.772l-.66-.662 1.869-1.876.66.662c.22.221.55.276.77.11.44-.276.935-.441 1.43-.607.275-.11.495-.331.495-.662V5.35h2.639v.938c0 .331.165.607.495.662.495.166.99.331 1.43.607.275.166.605.11.77-.11l.66-.662 1.869 1.876-.66.662c-.22.221-.275.552-.11.772.275.441.44.938.605 1.434.11.276.385.497.66.497h.88v2.648h.11z"></path><path d="M15.945 9.986a3.28 3.28 0 0 0-2.364.993c-.605.607-.935 1.49-.935 2.372s.33 1.71.99 2.372c.605.607 1.485.993 2.364.993s1.704-.331 2.364-.993c.605-.607.99-1.49.99-2.372s-.33-1.71-.99-2.372c-.715-.607-1.54-.993-2.419-.993zm1.43 4.745c-.385.386-.88.607-1.43.607s-1.045-.221-1.43-.607-.605-.883-.605-1.434c0-.552.22-1.048.605-1.434s.88-.607 1.43-.607c.55 0 1.045.221 1.43.607s.605.883.605 1.434c-.055.552-.275 1.103-.605 1.434z"></path></g></svg>