<svg xmlns="http://www.w3.org/2000/svg" viewBox="0 0 37 32"><g fill="currentColor" class="nc-icon-wrapper"><path d="M36.731 24.574c-.019.028-.048.057-.057.085-.392 1.559-1.407 2.353-3.033 2.353-3.598.009-7.195 0-10.802 0h-.507c.163.472.297.888.44 1.294.22.652.459 1.285.66 1.946.086.283.23.359.507.35.622-.019 1.244-.009 1.866-.009.517 0 .813.255.823.69.01.444-.297.709-.832.709H10.985c-.555 0-.861-.246-.871-.68-.01-.425.277-.718.746-.718.679-.009 1.359.009 2.048-.009.115 0 .306-.104.335-.198.383-1.058.737-2.116 1.1-3.184.019-.047.01-.094.019-.189H3.091c-1.32 0-2.296-.538-2.861-1.748-.105-.217-.153-.463-.23-.699V2.459a.309.309 0 0 0 .048-.094C.479.74 1.454.003 3.167.003h30.416c1.684 0 2.669.765 3.09 2.371.01.038.029.066.048.094.01 7.369.01 14.739.01 22.108zM18.38 1.398H3.062c-1.072 0-1.646.567-1.646 1.616v20.974c0 1.077.565 1.634 1.655 1.634H33.64c1.091 0 1.655-.567 1.655-1.634V3.051c0-1.096-.555-1.653-1.674-1.653H18.379zm-3.703 29.185h7.329c.01-.047.019-.066.01-.085-.373-1.096-.737-2.192-1.129-3.278-.029-.085-.21-.18-.316-.18-1.473-.009-2.937 0-4.411-.009-.201 0-.297.066-.364.255-.124.397-.258.784-.392 1.172-.239.69-.478 1.389-.727 2.126z"></path><path d="M18.351 24.158c-.469 0-.928.009-1.397 0-.431-.009-.718-.274-.737-.661-.01-.387.258-.699.689-.709a74.237 74.237 0 0 1 2.909 0c.431.009.708.321.698.699-.01.397-.306.671-.756.671-.478.009-.947 0-1.407 0z"></path><path d="M12.237 12.093h4.229c.555.009.842.283.813.841-.096 2.003-.985 3.581-2.689 4.667-1.981 1.257-4.535 1.162-6.439-.198-1.914-1.37-2.794-3.751-2.21-6.009.574-2.239 2.497-3.93 4.822-4.233.21-.028.431-.038.641-.038.545-.009.823.246.832.794.01.813 0 1.625 0 2.447v1.729zm-1.435-3.439c-1.713-.104-3.559 2.012-3.617 4.091-.067 2.296 1.914 4.308 4.258 4.318 2.153.009 4.315-1.776 4.277-3.562h-3.98c-.708 0-.938-.227-.938-.935V9.023v-.368z"></path><path d="M13.692 8.172c0-.567-.01-1.134 0-1.701.01-.52.287-.784.804-.784 2.229.009 4.172 1.89 4.219 4.091.01.595-.258.879-.861.879-1.11.009-2.22.009-3.33 0-.574 0-.832-.265-.832-.831-.01-.548 0-1.096 0-1.653zm3.454 1.059c-.105-.916-1.158-1.937-2-1.984v1.984h2z"></path><path d="M25.594 11.385h4.411c.105 0 .22 0 .325.009a.707.707 0 0 1 .631.624.67.67 0 0 1-.459.718 1.502 1.502 0 0 1-.459.057h-8.927c-.096 0-.191 0-.287-.009-.392-.057-.67-.359-.66-.718.01-.378.316-.671.727-.68 1.072-.009 2.153 0 3.224 0h1.473z"></path><path d="M25.537 7.095h-4.334c-.153 0-.316 0-.469-.028a.689.689 0 1 1-.028-1.351c.134-.028.287-.038.431-.038h8.86c.086 0 .172 0 .249.009.44.038.737.331.727.728-.01.378-.297.671-.727.68-.957.019-1.914.009-2.87.009-.622 0-1.225-.009-1.837-.009z"></path><path d="M25.565 18.48h-4.593c-.622 0-.986-.52-.727-1.011.144-.283.392-.397.708-.397h9.032c.115 0 .239-.009.354.009.364.057.632.368.612.718a.693.693 0 0 1-.66.671c-.344.019-.689.009-1.043.009-1.215.009-2.449 0-3.684 0z"></path><path d="M23.413 14.229h2.402c.507 0 .813.265.813.699s-.297.709-.804.718h-4.841c-.488 0-.823-.293-.823-.699-.01-.425.325-.709.842-.709.813-.009 1.617-.009 2.411-.009z"></path><path d="M28.111 8.541c.679 0 1.359-.009 2.038 0 .498.009.813.293.804.709-.01.406-.316.699-.785.699-1.397.009-2.794.009-4.191 0-.469 0-.775-.302-.765-.709 0-.406.306-.69.785-.69.708-.019 1.416-.009 2.115-.009z"></path><path d="M21.977 8.541c.354 0 .718-.009 1.072 0 .411.019.679.293.689.671s-.239.699-.641.718a31.39 31.39 0 0 1-2.296 0 .689.689 0 0 1-.651-.718c.019-.368.297-.642.698-.671h1.129z"></path><path d="M29.555 14.229c.239 0 .478-.009.718 0 .392.019.679.312.689.68a.7.7 0 0 1-.651.718c-.526.028-1.052.028-1.579 0-.392-.019-.641-.35-.631-.727.019-.359.277-.633.66-.671h.794z"></path></g></svg>