<svg xmlns="http://www.w3.org/2000/svg" viewBox="0 0 28 32"><g fill="currentColor" class="nc-icon-wrapper"><path d="M1.953 23.09l11.611 6.531V22.15l-.947-.923.947-.923v-3.749L1.953 10.021V23.09zm2.323-9.148l6.965 3.917v1.505l-.723.705-6.242-3.51v-2.617zm0 5.228l6.965 3.921v2.614c-2.323-1.307-4.646-2.614-6.965-3.917v-2.617z"></path><path d="M14.222 15.444L25.836 8.92 19.2 5.181l-1.297.337-.346-1.264-3.328-1.876L2.611 8.902l11.611 6.541zm4.649-7.834l2.319 1.307-6.968 3.914-2.319-1.307 6.968-3.914zm-3.307-1.863l.265.963-6.249 3.507-2.326-1.31 6.968-3.914 1.341.754z"></path><path d="M14.222 0L0 8v16l14.222 8 14.222-8V8L14.222 0zm13.356 23.514l-13.356 7.51-13.356-7.51V8.487L14.222.977l13.356 7.514v15.024z"></path><path d="M14.895 29.624l6.632-3.742.346-1.264 1.297.337 3.331-1.879-.017-13.062-11.607 6.548.017 13.062zm9.271-15.685l.01 7.838-1.338.754-.988-.255-.01-7.024 2.326-1.313zm-4.646 2.62l.01 7.838-2.319 1.31-.01-7.838 2.319-1.31z"></path></g></svg>