<svg xmlns="http://www.w3.org/2000/svg" viewBox="0 0 30 30"><g fill="none" class="nc-icon-wrapper"><path d="M8.811 15.378a7.8 7.8 0 1 1 6.15.063 11.737 11.737 0 0 1 4.435 2.384 1.04 1.04 0 1 1-1.352 1.58 9.602 9.602 0 0 0-6.27-2.325c-5.352 0-9.694 4.37-9.694 9.764 0 .072.003.15.01.254l.01.158.01.159a1.04 1.04 0 1 1-2.075.13l-.01-.144-.012-.175A6.04 6.04 0 0 1 0 26.844c0-5.51 3.742-10.144 8.811-11.466zm8.869-7.137a5.72 5.72 0 1 0-11.439 0 5.72 5.72 0 0 0 11.439 0zm7.28 15.079h3.12a1.04 1.04 0 0 1 0 2.08h-3.12v3.12a1.04 1.04 0 1 1-2.08 0V25.4h-3.12a1.04 1.04 0 1 1 0-2.08h3.12V20.2a1.04 1.04 0 0 1 2.08 0v3.12z" fill="currentColor"></path></g></svg>