<svg xmlns="http://www.w3.org/2000/svg" viewBox="0 0 60 60"><g fill="none" class="nc-icon-wrapper"><path d="M30 13.487A6.521 6.521 0 0 0 23.487 20 6.52 6.52 0 0 0 30 26.513 6.52 6.52 0 0 0 36.513 20 6.52 6.52 0 0 0 30 13.487zm0 10.526A4.017 4.017 0 0 1 25.987 20c0-2.213 1.8-4.013 4.013-4.013s4.013 1.8 4.013 4.013-1.8 4.013-4.013 4.013z" fill="currentColor"></path><path d="M53.75 29.737a1.25 1.25 0 1 0 .001 2.501 1.25 1.25 0 0 0-.001-2.501z" fill="currentColor"></path><path d="M53.75 47.237a1.25 1.25 0 1 0 0 2.5 1.25 1.25 0 0 0 0-2.5z" fill="currentColor"></path><path d="M37.5 5.987a1.25 1.25 0 1 0 0-2.5 1.25 1.25 0 0 0 0 2.5z" fill="currentColor"></path><path d="M21.25 7.237a1.25 1.25 0 1 0 0-2.5 1.25 1.25 0 0 0 0 2.5z" fill="currentColor"></path><path d="M5 13.487a1.25 1.25 0 1 0 0-2.5 1.25 1.25 0 0 0 0 2.5z" fill="currentColor"></path><path d="M12.5 22.237a1.25 1.25 0 1 0 2.499 0 1.25 1.25 0 0 0-2.5 0z" fill="currentColor"></path><path d="M3.75 38.487a1.25 1.25 0 1 0 0 2.5 1.25 1.25 0 0 0 0-2.5z" fill="currentColor"></path><path d="M58.75 15.987H55c-.69 0-1.25.56-1.25 1.25v1.25H52.5v-1.25c0-.69-.56-1.25-1.25-1.25H40.79c-1.66-4.46-5.967-7.5-10.79-7.5-6.349 0-11.514 5.165-11.514 11.513 0 3.647 1.705 6.902 4.36 9.013h-5c-4.48 0-8.125 3.645-8.125 8.125v19.375H7.5a1.25 1.25 0 0 0 0 2.5h45a1.25 1.25 0 1 0 0-2.5H50V37.138c0-4.48-3.645-8.125-8.125-8.125h-4.723a11.499 11.499 0 0 0 3.343-4.276H58.75c.69 0 1.25-.56 1.25-1.25v-6.25c0-.69-.56-1.25-1.25-1.25zm-25.168 26.91L30 47.658l-3.583-4.76L30 33.705l3.582 9.191zm13.918-5.76v19.376h-5v-6.25a1.25 1.25 0 0 0-2.5 0v6.25H20v-6.25a1.25 1.25 0 0 0-2.5 0v6.25H12.22V37.138a5.631 5.631 0 0 1 5.625-5.625h10.325l-4.336 11.125c-.158.403-.095.86.166 1.205l5 6.646a1.25 1.25 0 0 0 1.997 0l5-6.646c.26-.345.324-.802.166-1.205l-4.336-11.125h10.047a5.631 5.631 0 0 1 5.625 5.625zm10-14.9H39.654c-.527 0-.997.33-1.175.825a9.039 9.039 0 0 1-8.48 5.95c-4.969 0-9.012-4.042-9.012-9.012 0-4.97 4.043-9.013 9.013-9.013a9.04 9.04 0 0 1 8.68 6.586c.15.54.642.914 1.204.914H50v1.25c0 .69.56 1.25 1.25 1.25H55c.69 0 1.25-.56 1.25-1.25v-1.25h1.25v3.75z" fill="currentColor"></path><path d="M8.75 25.362a4.38 4.38 0 0 0-4.375-4.375A4.38 4.38 0 0 0 0 25.362a4.38 4.38 0 0 0 4.375 4.375 4.38 4.38 0 0 0 4.375-4.375zm-6.25 0c0-1.034.84-1.875 1.875-1.875 1.033 0 1.875.84 1.875 1.875a1.877 1.877 0 0 1-1.875 1.875A1.877 1.877 0 0 1 2.5 25.362z" fill="currentColor"></path><path d="M12.5 10.987a3.754 3.754 0 0 0 3.75-3.75 3.754 3.754 0 0 0-3.75-3.75 3.754 3.754 0 0 0-3.75 3.75 3.754 3.754 0 0 0 3.75 3.75zm0-5a1.251 1.251 0 0 1 0 2.5 1.25 1.25 0 0 1 0-2.5z" fill="currentColor"></path><path d="M48.75 10.987c2.757 0 5-2.243 5-5s-2.243-5-5-5-5 2.243-5 5 2.243 5 5 5zm0-7.5c1.379 0 2.5 1.122 2.5 2.5 0 1.379-1.121 2.5-2.5 2.5a2.503 2.503 0 0 1-2.5-2.5c0-1.378 1.121-2.5 2.5-2.5z" fill="currentColor"></path></g></svg>