<svg xmlns="http://www.w3.org/2000/svg" viewBox="0 0 31 24"><g fill="currentColor" class="nc-icon-wrapper"><path d="M30.635 11.738L25.432.62a1.083 1.083 0 0 0-1.37-.546l-2.208.874a1.078 1.078 0 0 0-.58 1.467l.306.649-.244.104c-.879.185-1.487.16-2.392-.095l-2.204-.621a3.305 3.305 0 0 0-1.9.031l-2.127.673a3.32 3.32 0 0 0-1.171.658c-.373-.138-1.086-.315-2.063-.173l.289-.552a1.09 1.09 0 0 0-.394-1.427L7.349.427A1.074 1.074 0 0 0 5.835.85L.126 11.803a1.078 1.078 0 0 0 .427 1.443l2.038 1.151a1.073 1.073 0 0 0 1.482-.44l.315-.6 1.014.844-1.457 2.023a1.709 1.709 0 0 0 .386 2.379l.177.128A1.686 1.686 0 0 0 5.913 19a1.697 1.697 0 0 0 .702 1.252l.177.128a1.687 1.687 0 0 0 1.405.271 1.697 1.697 0 0 0 .701 1.252l.177.128c.406.293.92.392 1.405.269a1.717 1.717 0 0 0 .702 1.253l.177.127a1.702 1.702 0 0 0 2.372-.386l.571-.794.901.72a1.937 1.937 0 0 0 2.655-.118c.345-.355.543-.828.554-1.323a1.943 1.943 0 0 0 2.696-1.753 1.94 1.94 0 0 0 2.691-1.695 1.943 1.943 0 0 0 2.383-.453l.025-.03a1.908 1.908 0 0 0-.197-2.69l-.636-.55a4.299 4.299 0 0 0 1.158-1.034l.009.02a1.075 1.075 0 0 0 1.402.531l2.147-.932a1.084 1.084 0 0 0 .548-1.451v-.002zM3.36 13.582c-.035.066-.095.115-.166.136s-.148.012-.212-.025L.944 12.542a.269.269 0 0 1-.108-.364L6.547 1.223a.269.269 0 0 1 .169-.135.272.272 0 0 1 .217.029l2.026 1.236a.274.274 0 0 1 .1.36L3.361 13.581zm1.612 4.497l-.176-.13a.897.897 0 0 1-.201-1.252l2.25-3.13a.902.902 0 0 1 1.253-.202l.177.128a.893.893 0 0 1 .2 1.252l-2.249 3.129a.897.897 0 0 1-1.255.205zm2.283 1.649l-.177-.127a.897.897 0 0 1-.201-1.252l1.666-2.321a.895.895 0 0 1 1.253-.201l.177.128a.897.897 0 0 1 .201 1.252l-1.667 2.317a.9.9 0 0 1-1.251.203v.003zm2.284 1.647l-.177-.128a.897.897 0 0 1-.201-1.252l1.189-1.655a.902.902 0 0 1 1.253-.202l.177.127a.902.902 0 0 1 .201 1.252l-1.189 1.652a.899.899 0 0 1-1.253.206zm3.537 1.445a.9.9 0 0 1-1.253.202l-.177-.128a.897.897 0 0 1-.201-1.252l.712-.989a.9.9 0 0 1 1.253-.202l.177.128a.897.897 0 0 1 .201 1.252l-.711.989zm12.781-6.298a1.09 1.09 0 0 1-.263.796l-.025.03a1.148 1.148 0 0 1-1.615.125l-.822-.714a.023.023 0 0 1-.007-.007l-2.161-1.872-.025-.022c-.08-.072-.186-.109-.294-.103s-.208.057-.278.14a.402.402 0 0 0 .048.574l2.189 1.895a1.142 1.142 0 0 1-1.497 1.725l-.678-.587-1.506-1.299a.4.4 0 0 0-.566.042.404.404 0 0 0 .043.569l1.507 1.304a1.14 1.14 0 0 1 .118 1.611 1.14 1.14 0 0 1-1.612.118l-1.507-1.304c-.169-.14-.417-.119-.56.048s-.127.417.036.564l.829.718a1.143 1.143 0 1 1-1.494 1.732l-.012-.01-1.012-.807c.097-.338.088-.699-.026-1.032s-.329-.622-.614-.827l-.177-.128a1.681 1.681 0 0 0-.991-.32c.101-.34.094-.704-.02-1.04s-.33-.628-.618-.834l-.177-.128a1.684 1.684 0 0 0-.992-.32c.099-.339.091-.7-.023-1.035s-.329-.624-.615-.83l-.177-.127c-.273-.198-.6-.31-.937-.319.14-.354.159-.744.053-1.11s-.331-.684-.639-.906l-.177-.127a1.697 1.697 0 0 0-2.372.386l-.325.455-1.099-.915 4.226-8.063c.881-.245 1.551-.186 1.964-.089a3.43 3.43 0 0 0-.305.562l-.65 1.587c-.165.404-.318.818-.453 1.232l-.648 1.983a.405.405 0 0 0 .218.495l.14.062c1.003.46 2.171.37 3.092-.238a3.147 3.147 0 0 0 1.398-2.328c.003-.035.007-.067.009-.106.029-.141.256-1.137.95-1.186l.937.265c.364.103.696.297.965.563l5.802 5.747a.112.112 0 0 0 .02.018l3.049 2.637c.22.189.355.458.376.748l-.002.002zm-1.137-2.474l-1.751-1.518-5.793-5.738a3.045 3.045 0 0 0-1.311-.765l-.997-.282a.404.404 0 0 0-.109-.015c-.622 0-1.132.342-1.477.983-.148.28-.254.581-.315.892 0 .013 0 .027-.005.04 0 .037-.005.073-.009.109a2.348 2.348 0 0 1-1.043 1.733 2.42 2.42 0 0 1-2.128.249l.535-1.628c.129-.395.275-.791.433-1.176l.648-1.582a2.513 2.513 0 0 1 1.561-1.424l2.127-.673a2.503 2.503 0 0 1 1.442-.024l2.204.621c1.047.295 1.783.32 2.814.099a.487.487 0 0 0 .074-.023l.309-.135 4.207 8.935a3.522 3.522 0 0 1-1.416 1.317l-.001.005zm5.197-1.753a.276.276 0 0 1-.147.155l-2.147.932a.273.273 0 0 1-.358-.135l-.279-.593a.407.407 0 0 0-.086-.183l-4.897-10.4a.271.271 0 0 1 .147-.371l2.208-.871a.276.276 0 0 1 .349.139l5.203 11.118a.27.27 0 0 1 .006.209z"></path></g></svg>