<svg xmlns="http://www.w3.org/2000/svg" viewBox="0 0 58 58"><g fill="none" class="nc-icon-wrapper"><path d="M19.614 29.366c-.54.54-1.413.54-1.953 0a1.25 1.25 0 1 0-1.768 1.768 3.887 3.887 0 0 0 5.49 0 1.25 1.25 0 1 0-1.769-1.768z" fill="currentColor"></path><path d="M23.811 35.094a8.874 8.874 0 0 0 3.708-7.213c0-4.897-3.984-8.881-8.881-8.881-4.898 0-8.882 3.984-8.882 8.881 0 2.968 1.465 5.6 3.708 7.213-6.579 2.176-11.34 8.383-11.34 15.682 0 2.135.406 4.218 1.205 6.193.191.472.65.781 1.159.781h28.3a1.25 1.25 0 0 0 1.158-.781 16.425 16.425 0 0 0 1.205-6.193c0-7.3-4.761-13.506-11.34-15.682zm-2.819 9.671l-2.354 2.436-2.355-2.436 2.355-5.887 2.354 5.887zm-8.736-16.884a6.389 6.389 0 0 1 6.382-6.381 6.388 6.388 0 0 1 6.38 6.381 6.388 6.388 0 0 1-6.38 6.382 6.389 6.389 0 0 1-6.382-6.382zm19.663 27.37h-4.4v-4.475a1.25 1.25 0 1 0-2.5 0v4.474H12.256v-4.474a1.25 1.25 0 0 0-2.5 0v4.474H5.357a13.932 13.932 0 0 1-.732-4.474c0-7.083 5.282-12.955 12.114-13.884l-3.078 7.696c-.183.457-.08.98.262 1.333l3.816 3.948a1.25 1.25 0 0 0 1.797 0l3.816-3.948a1.25 1.25 0 0 0 .262-1.333l-3.079-7.696c6.833.93 12.116 6.801 12.116 13.884a13.94 13.94 0 0 1-.733 4.474z" fill="currentColor"></path><path d="M56.851 19.469l-10-12.5a1.25 1.25 0 0 0-1.952 0l-10 12.5a1.25 1.25 0 0 0 .976 2.03h3.75v13.75c0 .691.56 1.25 1.25 1.25h10c.69 0 1.25-.559 1.25-1.25V21.5h3.75a1.25 1.25 0 0 0 .976-2.031zM49.625 34h-7.5V21.5h7.5V34zm-11.15-15l7.4-9.25 7.4 9.25h-14.8z" fill="currentColor"></path><path d="M50.875 37.75h-10c-.69 0-1.25.56-1.25 1.25v8.75c0 .69.56 1.25 1.25 1.25h10c.69 0 1.25-.56 1.25-1.25V39c0-.69-.56-1.25-1.25-1.25zm-1.25 8.75h-7.5v-6.25h7.5v6.25z" fill="currentColor"></path><path d="M50.875 50.25h-10c-.69 0-1.25.56-1.25 1.25v5c0 .69.56 1.25 1.25 1.25h10c.69 0 1.25-.56 1.25-1.25v-5c0-.69-.56-1.25-1.25-1.25zm-1.25 5h-7.5v-2.5h7.5v2.5z" fill="currentColor"></path><path d="M4.625 16.5h21.25a1.25 1.25 0 0 0 0-2.5H4.625a1.25 1.25 0 0 0 0 2.5z" fill="currentColor"></path><path d="M17.125 12.75h16.25a1.25 1.25 0 0 0 0-2.5h-16.25a1.25 1.25 0 0 0 0 2.5z" fill="currentColor"></path><path d="M8.375 25.25a3.754 3.754 0 0 0-3.75-3.75 3.754 3.754 0 0 0-3.75 3.75A3.754 3.754 0 0 0 4.625 29a3.754 3.754 0 0 0 3.75-3.75zm-5 0a1.25 1.25 0 0 1 2.5 0c0 .69-.561 1.25-1.25 1.25-.69 0-1.25-.561-1.25-1.25z" fill="currentColor"></path><path d="M34 29a3.129 3.129 0 0 0-3.125 3.125 3.129 3.129 0 0 0 3.124 3.125 3.129 3.129 0 0 0 3.125-3.125A3.129 3.129 0 0 0 34 29zm0 3.75A.626.626 0 1 1 34 31.498.626.626 0 0 1 34 32.75z" fill="currentColor"></path><path d="M39 9a4.38 4.38 0 0 0 4.375-4.375A4.38 4.38 0 0 0 38.999.25a4.38 4.38 0 0 0-4.375 4.375A4.38 4.38 0 0 0 39 9zm0-6.25c1.033 0 1.875.841 1.875 1.875A1.877 1.877 0 0 1 38.999 6.5a1.877 1.877 0 0 1-1.875-1.875c0-1.034.842-1.875 1.875-1.875z" fill="currentColor"></path><path d="M18.375 4a1.25 1.25 0 1 0 0-2.5 1.25 1.25 0 0 0 0 2.5z" fill="currentColor"></path><path d="M13.374 12.75a1.25 1.25 0 1 0 0-2.5 1.25 1.25 0 0 0 0 2.5z" fill="currentColor"></path><path d="M5.875 9a1.25 1.25 0 1 0 0-2.5 1.25 1.25 0 0 0 0 2.5z" fill="currentColor"></path><path d="M32.124 25.25a1.25 1.25 0 1 0 0-2.5 1.25 1.25 0 0 0 0 2.5z" fill="currentColor"></path><path d="M54.625 45.25a1.25 1.25 0 1 0 0-2.5 1.25 1.25 0 0 0 0 2.5z" fill="currentColor"></path><path d="M53.375 7.75a1.25 1.25 0 1 0 0-2.5 1.25 1.25 0 0 0 0 2.5z" fill="currentColor"></path><path d="M3.375 36.5a1.25 1.25 0 1 0 0-2.5 1.25 1.25 0 0 0 0 2.5z" fill="currentColor"></path></g></svg>