<svg xmlns="http://www.w3.org/2000/svg" viewBox="0 0 18 22"><g fill="none" class="nc-icon-wrapper"><path fill-rule="evenodd" clip-rule="evenodd" d="M2.53 2.53c-.511.512-.78 1.465-.78 3.47v10c0 2.005.269 2.958.78 3.47.512.511 1.465.78 3.47.78h6c2.005 0 2.958-.269 3.47-.78.511-.512.78-1.465.78-3.47V6c0-2.005-.269-2.958-.78-3.47-.512-.511-1.465-.78-3.47-.78H6c-2.005 0-2.958.269-3.47.78zM1.47 1.47C2.458.48 4.005.25 6 .25h6c1.995 0 3.542.231 4.53 1.22.989.988 1.22 2.535 1.22 4.53v10c0 1.995-.231 3.542-1.22 4.53-.988.989-2.535 1.22-4.53 1.22H6c-1.995 0-3.542-.231-4.53-1.22C.48 19.542.25 17.995.25 16V6c0-1.995.231-3.542 1.22-4.53z" fill="currentColor"></path><path fill-rule="evenodd" clip-rule="evenodd" d="M6.25 4.5A.75.75 0 0 1 7 3.75h4a.75.75 0 0 1 0 1.5H7a.75.75 0 0 1-.75-.75z" fill="currentColor"></path><path fill-rule="evenodd" clip-rule="evenodd" d="M9 15.75a.8.8 0 1 0 0 1.6.8.8 0 0 0 0-1.6zm-2.3.8a2.3 2.3 0 1 1 4.6 0 2.3 2.3 0 0 1-4.6 0z" fill="currentColor"></path></g></svg>