<svg xmlns="http://www.w3.org/2000/svg" viewBox="0 0 32 32"><g fill="currentColor" class="nc-icon-wrapper"><path d="M32 16c0 4.24-1.68 8.32-4.68 11.32S20.24 32 16 32s-8.32-1.68-11.32-4.68S0 20.24 0 16 1.68 7.68 4.68 4.68 11.76 0 16 0s8.32 1.68 11.32 4.68S32 11.76 32 16zm-16.84-3.48c-.08-.08-.2-.12-.32-.12s-.2 0-.32.08c-.08.04-.2.12-.24.24-.04.08-.08.2-.08.32v6c0 .12.04.2.08.32.04.08.12.16.24.24.08.04.2.08.32.08s.2-.04.32-.12l4.2-3c.08-.04.16-.12.2-.2s.08-.16.08-.28c0-.12-.04-.2-.08-.28s-.12-.16-.2-.2l-4.2-3.08z"></path></g></svg>