<svg xmlns="http://www.w3.org/2000/svg" viewBox="0 0 32 32"><g class="nc-icon-wrapper"><path fill="#47c052" d="M31.366 23.951c-.293-.244-.683-.293-1.171-.195 0-.439-.146-.878-.39-1.22a1.841 1.841 0 0 0-1.415-.634h-.049c-.683 0-1.463.293-2.488.683-1.073.39-2.39.927-4.049 1.268-.634-.634-1.561-.634-1.561-.634-2.195.049-3.512-.049-4.39-.244v-1.366h2.537c3.951 0 7.219-3.219 7.219-7.219a.384.384 0 0 0-.39-.39h-2.927c-2.829 0-5.268 1.659-6.439 4.049v-6.585c2.976-.195 5.366-2.683 5.366-5.707 0-3.171-2.585-5.756-5.707-5.756S9.756 2.586 9.756 5.757c0 3.024 2.39 5.512 5.366 5.707v4.341a7.199 7.199 0 0 0-6.488-4.049H5.707a.384.384 0 0 0-.39.39c0 3.951 3.22 7.22 7.22 7.22h2.585v3.561c-.488-.146-.78-.341-1.122-.537-1.122-.634-2.39-1.366-9.756-1.415H.342c-.195 0-.341.146-.341.39v8.78c0 .195.146.39.39.39h3.902c.634.195 4.78 1.463 10.146 1.463 5.024 0 11.122-1.073 16.39-5.171.098-.098 1.122-.78 1.171-1.659-.049-.341-.098-.78-.634-1.22zm-9.025-9.073h2.537c-.195 3.415-3.024 6.098-6.439 6.098h-2.098a27.732 27.732 0 0 1 5.61-4.488c.195-.098.244-.341.146-.488-.098-.195-.341-.244-.488-.146-2.634 1.561-4.634 3.415-5.61 4.439.439-3.073 3.122-5.415 6.341-5.415zM10.488 5.756A5.017 5.017 0 0 1 15.512.732c2.732 0 4.976 2.244 4.976 5.024 0 2.732-2.244 4.976-4.976 4.976-2.78 0-5.024-2.244-5.024-4.976zm-4.39 6.683h2.537c3.22 0 5.902 2.341 6.39 5.415-.976-1.024-2.976-2.878-5.61-4.439-.195-.098-.39-.049-.488.146s-.049.39.146.488a27.732 27.732 0 0 1 5.61 4.488h-2.098c-3.463 0-6.293-2.683-6.488-6.098zm20.048 10.878c.976-.341 1.707-.634 2.244-.634.39 0 .683.098.878.341s.244.585.195.976c-.341.146-.732.293-1.171.439-1.366.537-3.317 1.366-6.098 2 .098-.244.146-.439.195-.634.049-.488-.049-.878-.146-1.268 1.61-.341 2.878-.829 3.902-1.22zM.732 21.707h3.171v8.049H.732v-8.049zm30.488 3.366c0 .439-.634.976-.829 1.122-10.244 7.902-23.756 4.244-25.756 3.659v-8.146c6.829.049 8 .732 9.024 1.317s1.854 1.073 6.634 1.024c0 0 .634 0 1.024.39.293.293.39.732.39 1.366-.049.439-.39.78-1.024 1.024-1.122.341-3.317.634-7.463.098-.195-.049-.39.098-.39.293-.049.195.098.39.293.39 1.61.195 3.024.341 4.244.341 1.415 0 2.585-.146 3.463-.39 3.659-.683 6.098-1.707 7.707-2.39 1.171-.488 2.049-.829 2.293-.634.39.244.39.439.39.537z"></path><path fill="#47c052" d="M2.341 28.683a.488.488 0 1 0 0-.976.488.488 0 0 0 0 .976z"></path><path fill="#47c052" d="M18.829 6.195c.244 0 .439-.195.439-.439s-.195-.439-.439-.439-.439.195-.439.439.195.439.439.439z"></path><path fill="#47c052" d="M12.146 5.268c-.244 0-.439.195-.439.439s.195.439.439.439.439-.195.439-.439-.195-.439-.439-.439z"></path><path fill="#47c052" d="M15.854 9.366v-.439c.878-.146 1.561-.878 1.561-1.756s-.488-1.805-1.951-1.805c-.976 0-1.22-.585-1.22-1.073 0-.585.537-1.073 1.22-1.073.488 0 .927.293 1.122.683.098.195.293.293.488.195s.293-.293.195-.488c-.244-.585-.78-.976-1.415-1.122v-.39a.384.384 0 0 0-.39-.39.384.384 0 0 0-.39.39v.439c-.878.146-1.561.878-1.561 1.756s.488 1.805 1.951 1.805c.976 0 1.22.585 1.22 1.073 0 .585-.537 1.073-1.22 1.073-.488 0-.927-.293-1.122-.683-.098-.195-.293-.293-.488-.195s-.293.293-.195.488c.244.585.781.976 1.415 1.122v.439c0 .195.146.39.39.39.244-.098.39-.244.39-.439z"></path><path fill="#47c052" d="M1.854 17.805h.683c.195 0 .39-.146.39-.39s-.244-.341-.439-.341h-.634c-.244 0-.39.146-.39.39s.146.341.39.341z"></path><path fill="#47c052" d="M4.098 17.073c-.195 0-.39.146-.39.39s.146.39.39.39h.683c.195 0 .39-.146.39-.39s-.195-.39-.39-.39h-.683z"></path><path fill="#47c052" d="M3.317 19.268c.195 0 .39-.146.39-.39v-.683a.384.384 0 0 0-.39-.39c-.244.049-.39.244-.39.439v.683c0 .195.146.341.39.341z"></path><path fill="#47c052" d="M3.317 17.024c.195 0 .39-.146.39-.39v-.683a.384.384 0 0 0-.39-.39c-.244.049-.39.195-.39.439v.683c0 .146.146.341.39.341z"></path><path fill="#47c052" d="M5.902 9.024c.195 0 .39-.146.39-.39a.384.384 0 0 0-.39-.39h-.683a.384.384 0 0 0-.39.39c0 .195.146.39.39.39h.683z"></path><path fill="#47c052" d="M7.512 9.024h.683c.195 0 .39-.146.39-.39a.384.384 0 0 0-.39-.39h-.683c-.195 0-.39.146-.39.39s.195.39.39.39z"></path><path fill="#47c052" d="M6.732 9.073a.384.384 0 0 0-.39.39v.683c0 .195.146.39.39.39.195 0 .39-.146.39-.39v-.683c-.049-.244-.195-.39-.39-.39z"></path><path fill="#47c052" d="M6.341 7.171v.683c0 .195.146.39.39.39.195 0 .39-.146.39-.39v-.683a.384.384 0 0 0-.39-.39c-.244.049-.39.195-.39.39z"></path><path fill="#47c052" d="M3.317 3.171H4c.195 0 .39-.146.39-.39a.469.469 0 0 0-.439-.341h-.634c-.244 0-.39.146-.39.341 0 .244.146.39.39.39z"></path><path fill="#47c052" d="M5.561 3.171h.683c.195 0 .39-.146.39-.39a.384.384 0 0 0-.39-.39h-.683c-.195 0-.39.146-.39.39s.195.39.39.39z"></path><path fill="#47c052" d="M4.78 4.634c.195 0 .39-.146.39-.39V3.61c0-.195-.146-.39-.39-.39s-.39.146-.39.39v.683c0 .195.146.341.39.341z"></path><path fill="#47c052" d="M4.78 2.39c.195 0 .39-.146.39-.39v-.683a.384.384 0 0 0-.39-.39c-.244.049-.39.195-.39.39V2c0 .195.146.39.39.39z"></path><path fill="#47c052" d="M23.317 10.976H24c.195 0 .39-.146.39-.39a.384.384 0 0 0-.39-.39h-.683c-.195 0-.39.146-.39.39s.146.39.39.39z"></path><path fill="#47c052" d="M25.561 10.976h.683c.195 0 .39-.146.39-.39a.384.384 0 0 0-.39-.39h-.683c-.195 0-.39.146-.39.39s.195.39.39.39z"></path><path fill="#47c052" d="M24.78 12.439c.195 0 .39-.146.39-.39v-.683a.384.384 0 0 0-.39-.39.384.384 0 0 0-.39.39v.683c0 .244.146.39.39.39z"></path><path fill="#47c052" d="M24.78 10.195c.195 0 .39-.146.39-.39v-.683a.384.384 0 0 0-.39-.39.384.384 0 0 0-.39.39v.683c0 .195.146.39.39.39z"></path><path fill="#47c052" d="M26.732 5.122h.683c.195 0 .39-.146.39-.39s-.195-.341-.439-.341h-.683c-.195 0-.341.146-.341.341s.146.39.39.39z"></path><path fill="#47c052" d="M28.976 5.122h.683c.195 0 .39-.146.39-.39s-.195-.341-.39-.341h-.683c-.195 0-.39.146-.39.39s.195.341.39.341z"></path><path fill="#47c052" d="M28.195 6.585c.195 0 .39-.146.39-.39v-.683a.384.384 0 0 0-.39-.39.384.384 0 0 0-.39.39v.683c0 .244.146.39.39.39z"></path><path fill="#47c052" d="M28.195 4.341c.195 0 .39-.146.39-.39v-.683a.384.384 0 0 0-.39-.39c-.244.049-.39.195-.39.39v.683c0 .195.146.39.39.39z"></path><path fill="#47c052" d="M29.317 18.537h-.683a.384.384 0 0 0-.39.39c0 .195.146.39.39.39h.683c.195 0 .39-.146.39-.39s-.146-.39-.39-.39z"></path><path fill="#47c052" d="M30.927 19.268h.683c.195 0 .39-.146.39-.39a.384.384 0 0 0-.39-.39h-.683c-.195 0-.39.146-.39.39s.195.39.39.39z"></path><path fill="#47c052" d="M30.146 19.317a.384.384 0 0 0-.39.39v.683c0 .195.146.39.39.39.195 0 .39-.146.39-.39v-.683c-.049-.195-.195-.39-.39-.39z"></path><path fill="#47c052" d="M29.756 17.463v.683c0 .195.146.39.39.39.195 0 .39-.146.39-.39v-.683c0-.195-.146-.39-.39-.39s-.39.146-.39.39z"></path></g></svg>