<svg xmlns="http://www.w3.org/2000/svg" viewBox="0 0 41 42"><g fill="none" class="nc-icon-wrapper"><path fill-rule="evenodd" clip-rule="evenodd" d="M15 2a7.873 7.873 0 0 0-7.88 7.88c0 4.243 3.324 7.688 7.517 7.858.233-.017.481-.018.709 0 4.19-.172 7.515-3.615 7.534-7.86A7.885 7.885 0 0 0 15 2zM5.12 9.88C5.12 4.43 9.526 0 15 0c5.452 0 9.88 4.428 9.88 9.88v.004c-.022 5.334-4.226 9.677-9.526 9.855a.986.986 0 0 1-.134-.004 2.642 2.642 0 0 0-.47 0 1.01 1.01 0 0 1-.124.004c-5.3-.178-9.506-4.521-9.506-9.859zM28.82 5a1 1 0 0 1 1-1c4.434 0 8 3.59 8 8 0 4.32-3.428 7.84-7.703 8-.054.001-.108-.001-.161-.008a1.262 1.262 0 0 0-.286.002 1 1 0 0 1-.22-1.988c.217-.024.443-.028.662-.008A6.01 6.01 0 0 0 35.82 12c0-3.31-2.674-6-6-6a1 1 0 0 1-1-1zM15.345 22.375c3.78 0 7.61.95 10.55 2.913 2.628 1.75 4.075 4.157 4.075 6.695 0 2.537-1.447 4.95-4.074 6.708-2.949 1.973-6.784 2.929-10.566 2.929-3.782 0-7.616-.956-10.565-2.928C2.137 36.943.69 34.535.69 31.997c0-2.537 1.447-4.95 4.074-6.708l.003-.002c2.958-1.962 6.797-2.912 10.578-2.912zm-9.47 4.577c-2.212 1.481-3.185 3.329-3.185 5.045 0 1.717.973 3.56 3.184 5.03l.002.002c2.551 1.707 5.976 2.591 9.454 2.591 3.478 0 6.903-.884 9.454-2.591 2.213-1.481 3.186-3.33 3.186-5.047 0-1.716-.973-3.558-3.184-5.03h-.002c-2.54-1.697-5.96-2.577-9.44-2.577-3.477 0-6.908.88-9.47 2.577zm26.89-2.172a1 1 0 0 1 1.195-.756c1.526.344 3.005.954 4.244 1.899 1.774 1.332 2.736 3.162 2.736 5.067 0 1.904-.961 3.734-2.735 5.066-1.256.963-2.758 1.597-4.321 1.923a1 1 0 0 1-.408-1.958c1.315-.274 2.531-.799 3.515-1.554L37 34.46c1.343-1.007 1.94-2.276 1.94-3.47 0-1.194-.597-2.463-1.94-3.47l-.007-.005c-.961-.734-2.16-1.244-3.473-1.54a1 1 0 0 1-.756-1.195z" fill="currentColor"></path></g></svg>