<svg xmlns="http://www.w3.org/2000/svg" viewBox="0 0 47 32"><g fill="currentColor" class="nc-icon-wrapper"><path d="M7.304 32c.397 0 .791-.132 1.12-.391l12.572-10.057c.434-.351.687-.877.687-1.437V1.829C21.683.823 20.874 0 19.876 0H1.807C.809 0 0 .823 0 1.829v18.286c0 1.006.809 1.829 1.807 1.829h6.472l-2.681 7.614a1.84 1.84 0 0 0 .65 2.099c.311.23.68.344 1.056.344z"></path><path d="M32.6 32c.397 0 .791-.132 1.12-.391l12.572-10.057c.434-.351.687-.877.687-1.437V1.829C46.979.823 46.17 0 45.172 0H27.103c-.998 0-1.807.823-1.807 1.829v18.286c0 1.006.809 1.829 1.807 1.829h6.472l-2.681 7.614a1.84 1.84 0 0 0 .65 2.099c.312.23.68.344 1.056.344z"></path></g></svg>