<svg xmlns="http://www.w3.org/2000/svg" viewBox="0 0 33 32"><g fill="currentColor" class="nc-icon-wrapper"><path d="M26.712 11.785c3.689 0 6.679 3.017 6.679 6.739 0 1.71-.631 3.271-1.671 4.459v7.751c0 .962-1.009 1.549-1.82 1.127l-.149-.091-3.039-2.143-3.038 2.143c-.781.551-1.836.052-1.958-.86l-.012-.176-.002-7.752a6.75 6.75 0 0 1-1.67-4.458c0-3.722 2.99-6.739 6.679-6.739zm2.502 12.99a6.613 6.613 0 0 1-2.502.489 6.606 6.606 0 0 1-2.505-.49l.001 3.536 1.788-1.259a1.241 1.241 0 0 1 1.267-.099l.168.099 1.785 1.259v-3.534zM28.798 0c2.441 0 4.438 1.923 4.583 4.35l.008.282.002 8.837a8.42 8.42 0 0 0-2.504-2.242l-.002-6.595a2.1 2.1 0 0 0-1.873-2.095l-.213-.011H4.592c-1.08 0-1.969.829-2.076 1.89l-.011.215v16.004a2.1 2.1 0 0 0 1.873 2.095l.213.011 14.894.002.207.341.223.331.118.157-.002 1.695H4.59c-2.442 0-4.438-1.923-4.583-4.35l-.008-.282V4.632C-.001 2.168 1.905.154 4.31.008L4.59 0h24.207zm-2.086 14.312c-2.306 0-4.175 1.886-4.175 4.212s1.869 4.213 4.175 4.213 4.175-1.886 4.175-4.213-1.869-4.212-4.175-4.212zm-11.27 1.685c.691 0 1.252.566 1.252 1.263a1.26 1.26 0 0 1-1.082 1.252l-.17.011H7.929a1.258 1.258 0 0 1-1.252-1.263c0-.64.471-1.168 1.082-1.252l.17-.011h7.513zm10.017-9.266c.691 0 1.252.566 1.252 1.263a1.26 1.26 0 0 1-1.082 1.252l-.17.012H7.93a1.258 1.258 0 0 1-1.252-1.263c0-.64.471-1.168 1.082-1.252l.17-.012h17.529z"></path></g></svg>