<svg xmlns="http://www.w3.org/2000/svg" viewBox="0 0 36 31"><g fill="currentColor" class="nc-icon-wrapper"><path d="M16.615 18v8.308c0 1.154-.403 2.134-1.211 2.942-.808.808-1.789 1.212-2.943 1.212H4.154c-1.154 0-2.135-.404-2.942-1.212C.404 28.442 0 27.462 0 26.308V11.077c0-1.5.292-2.932.876-4.295a11.161 11.161 0 0 1 2.37-3.537A11.161 11.161 0 0 1 6.781.876 10.79 10.79 0 0 1 11.077 0h1.384c.375 0 .7.137.974.411.274.274.411.599.411.974v2.769c0 .375-.137.7-.41.973a1.33 1.33 0 0 1-.975.411h-1.384c-1.529 0-2.834.541-3.916 1.623-1.082 1.082-1.623 2.387-1.623 3.916v.692c0 .577.202 1.067.606 1.471.404.404.894.606 1.471.606h4.846c1.154 0 2.135.404 2.943 1.212.808.807 1.211 1.788 1.211 2.942zM36 18v8.308c0 1.154-.404 2.134-1.212 2.942-.807.808-1.788 1.212-2.942 1.212h-8.308c-1.153 0-2.134-.404-2.942-1.212-.808-.808-1.211-1.788-1.211-2.942V11.077c0-1.5.292-2.932.876-4.295a11.162 11.162 0 0 1 2.369-3.537A11.161 11.161 0 0 1 26.167.876 10.789 10.789 0 0 1 30.461 0h1.385c.375 0 .7.137.974.411.274.274.41.599.41.974v2.769c0 .375-.136.7-.41.973a1.33 1.33 0 0 1-.974.411h-1.384c-1.53 0-2.835.541-3.916 1.623-1.082 1.082-1.623 2.387-1.623 3.916v.692c0 .577.202 1.067.606 1.471.404.404.894.606 1.471.606h4.846c1.154 0 2.135.404 2.942 1.212C35.596 15.865 36 16.846 36 18z" fill="currentColor" class="nc-icon-wrapper"></path></g></svg>