<svg xmlns="http://www.w3.org/2000/svg" viewBox="0 0 56 32"><g fill="currentColor" class="nc-icon-wrapper"><path d="M28 32c-1.191-.005-2.366-.211-3.439-.605s-2.018-.964-2.766-1.671L2.152 11.591C1.004 10.499.282 9.184.067 7.795s.087-2.797.871-4.061c.636-1.099 1.673-2.036 2.989-2.698S6.78.015 8.357.001h39.286c1.576.014 3.114.373 4.43 1.035s2.353 1.599 2.989 2.698c.784 1.265 1.086 2.672.872 4.061s-.937 2.705-2.085 3.796L34.206 29.724c-.748.706-1.693 1.277-2.766 1.671s-2.248.6-3.439.605z"></path></g></svg>