<svg xmlns="http://www.w3.org/2000/svg" viewBox="0 0 32 32"><g fill="currentColor" class="nc-icon-wrapper"><path d="M14.313.075l.008.012A16.062 16.062 0 0 1 16 0c8.837 0 16 7.163 16 16s-7.163 16-16 16a15.972 15.972 0 0 1-12.632-6.179l-.004-.001.001-.003A15.929 15.929 0 0 1 .001 16C.001 7.741 6.259.943 14.292.09l.022-.015zM16 2.4l-.255.002c.196.391.407.853.598 1.361.555 1.475 1.065 3.65.16 5.578-.836 1.78-2.279 2.241-3.344 2.516l-.135.035c-1.05.271-1.454.375-1.749.822-.27.41-.229.932.098 1.999l.074.237c.13.413.286.912.368 1.38.101.583.13 1.324-.243 2.041-.37.711-.861 1.195-1.441 1.511-.545.297-1.109.409-1.531.484l-.149.026c-.824.145-1.218.214-1.602.626-.298.319-.49.883-.603 1.725-.046.343-.073.683-.102 1.034l-.015.187c-.032.388-.072.834-.159 1.217v.002a13.565 13.565 0 0 0 10.031 4.416 13.53 13.53 0 0 0 6.911-1.885 7.145 7.145 0 0 1-.497-.561c-.543-.684-1.256-1.862-1.009-3.253.119-.669.477-1.229.823-1.658.353-.437.779-.842 1.151-1.185l.255-.233c.285-.26.528-.482.735-.699.276-.29.337-.42.34-.427.109-.36-.025-.614-.17-.727a.49.49 0 0 0-.304-.098c-.134-.001-.352.039-.642.223a1.456 1.456 0 0 1-1.337.137c-.428-.172-.665-.502-.779-.69-.23-.381-.36-.874-.444-1.236a87.39 87.39 0 0 1-.248-1.215c-.081-.4-.149-.685-.215-.863 0 0-.009-.022-.031-.061a2.64 2.64 0 0 0-.102-.168 10.348 10.348 0 0 0-.364-.506l-.175-.23c-.258-.338-.565-.74-.826-1.139-.313-.477-.667-1.101-.779-1.767a2.344 2.344 0 0 1 .088-1.174c.15-.424.423-.772.779-1.038.773-.58 1.91-1.876 2.917-3.134.46-.575.871-1.113 1.177-1.522A13.536 13.536 0 0 0 16 2.395zm9.164 3.551c-.316.422-.739.974-1.213 1.566-.963 1.202-2.239 2.696-3.279 3.5.041.158.161.419.408.796.21.32.449.634.702.966l.208.273c.276.365.658.875.833 1.35.138.374.237.83.316 1.218l.078.394c.041.209.079.404.12.591.963-.275 1.923-.109 2.672.47.974.753 1.38 2.058.999 3.319-.175.579-.582 1.056-.901 1.39-.27.283-.594.579-.888.847l-.212.194c-.368.339-.677.639-.909.925-.238.295-.312.479-.329.571-.062.35.108.815.525 1.34a5.033 5.033 0 0 0 .599.627 13.57 13.57 0 0 0 4.707-10.29c0-3.981-1.71-7.562-4.436-10.049zM2.4 16c0 2.237.54 4.349 1.497 6.21.136-.892.419-1.997 1.196-2.829.96-1.028 2.137-1.221 2.877-1.342l.209-.035c.396-.07.625-.133.802-.229.142-.077.3-.204.461-.513.024-.046.068-.172.007-.52-.052-.298-.149-.61-.276-1.018l-.095-.307c-.296-.965-.77-2.563.192-4.023.835-1.267 2.177-1.591 3.029-1.797.092-.022.179-.043.259-.064.901-.233 1.413-.448 1.772-1.213.473-1.006.269-2.376-.234-3.712a12.081 12.081 0 0 0-.926-1.914C7.017 3.996 2.399 9.458 2.399 15.999z"></path></g></svg>