<svg xmlns="http://www.w3.org/2000/svg" viewBox="0 0 35 32"><g fill="currentColor" class="nc-icon-wrapper"><path d="M33.227 5.824H6.13l-.413-4.512C5.653.576 5.05 0 4.319 0H1.428C.634 0-.001.64-.001 1.44s.635 1.44 1.429 1.44h1.588c.858 9.76-1.366-15.456 1.652 18.368.095 1.312.794 2.752 2.033 3.744C4.509 27.808 6.51 32 10.1 32c2.986 0 5.083-3.008 4.066-5.824h7.783C20.932 28.992 23.029 32 26.015 32c2.382 0 4.32-1.952 4.32-4.352s-1.938-4.352-4.32-4.352H10.132c-1.08 0-2.033-.672-2.446-1.6l22.745-1.344c.635-.032 1.143-.48 1.302-1.088l2.891-11.648c.222-.896-.477-1.792-1.398-1.792zM10.102 29.12c-.794 0-1.461-.672-1.461-1.472s.667-1.472 1.461-1.472 1.461.672 1.461 1.472c0 .832-.667 1.472-1.461 1.472zm15.914 0c-.794 0-1.461-.672-1.461-1.472s.667-1.472 1.461-1.472 1.461.672 1.461 1.472c0 .832-.667 1.472-1.461 1.472zm3.209-11.584L7.306 18.848 6.385 8.704h25.032l-2.192 8.832z"></path></g></svg>