<svg xmlns="http://www.w3.org/2000/svg" viewBox="0 0 38 42"><g fill="none" class="nc-icon-wrapper"><path fill-rule="evenodd" clip-rule="evenodd" d="M7 2.02c-2.776 0-5 2.22-5 4.94v21.82c0 2.718 2.224 4.94 5 4.94h1.5a7.01 7.01 0 0 1 4.947 2.032l3.416 3.376a3.045 3.045 0 0 0 4.255 0l3.415-3.376.002-.002a6.975 6.975 0 0 1 4.945-2.03H31c2.774 0 5-2.24 5-4.94V6.96c0-2.72-2.224-4.94-5-4.94H7zM0 6.96C0 3.117 3.136.02 7 .02h24c3.864 0 7 3.098 7 6.94v21.82c0 3.818-3.134 6.94-7 6.94h-1.52c-1.34 0-2.604.518-3.533 1.447l-.004.004-3.42 3.38c-1.95 1.924-5.116 1.925-7.066 0l-3.42-3.38-.004-.004A5.01 5.01 0 0 0 8.5 35.719H7c-3.864 0-7-3.099-7-6.94V6.96zm24.076 4.983a2.187 2.187 0 0 1 2.434-.926 2.158 2.158 0 0 1 1.57 2.083v7.54H29a1 1 0 1 1 0 2h-.92v1.88a1 1 0 1 1-2 0v-1.88h-4.42c-.804 0-1.56-.42-1.965-1.12-.4-.69-.4-1.571 0-2.261l.002-.005c1.36-2.32 2.926-4.97 4.373-7.302l.006-.01zm2.004 8.697V13.1a.159.159 0 0 0-.11-.157.187.187 0 0 0-.205.071c-1.431 2.307-2.984 4.934-4.342 7.251l-.863-.505.865.5a.288.288 0 0 0 0 .259.27.27 0 0 0 .235.12h4.42zm-13.7-7.7A2.389 2.389 0 0 0 10 15.32a1 1 0 1 1-2 0 4.389 4.389 0 0 1 4.38-4.38 4.389 4.389 0 0 1 4.38 4.38c0 2.461-1.81 3.772-3.252 4.762l-.27.184c-1.463 1-2.614 1.788-3.048 3.107l-.95-.313.951.308a.05.05 0 0 0-.002.029c.002.01.009.03.029.055a.238.238 0 0 0 .182.088h5.36a1 1 0 1 1 0 2H10.4c-1.35 0-2.593-1.303-2.111-2.789l.001-.005c.658-1.996 2.383-3.161 3.724-4.067l.363-.246c1.522-1.046 2.383-1.815 2.383-3.113a2.389 2.389 0 0 0-2.38-2.38z" fill="currentColor"></path></g></svg>