<svg xmlns="http://www.w3.org/2000/svg" viewBox="0 0 32 32"><g class="nc-icon-wrapper"><path fill="#4453f6" d="M29.181 1.905c-1.524 0-2.819 1.295-2.819 2.819v18.819c0 .152 0 .229.076.305l1.905 5.638c.152.381.457.61.914.61a.99.99 0 0 0 .914-.61l1.905-5.638c0-.076.076-.229.076-.305V4.724c-.152-1.6-1.448-2.819-2.971-2.819zm0 24.305l-.61-1.752h1.143l-.533 1.752zm.914-3.658H28.19V9.447h1.905v13.105zm0-15.009H28.19V4.724c0-.533.457-.914.914-.914.533 0 .914.457.914.914v2.819h.076zm-8.381-5.638h-3.048A2.792 2.792 0 0 0 15.999 0H8.532a2.792 2.792 0 0 0-2.667 1.905H2.817A2.812 2.812 0 0 0-.002 4.724v24.533c0 1.524 1.295 2.819 2.819 2.819h18.895c1.524 0 2.819-1.295 2.819-2.819V4.724c0-1.6-1.295-2.819-2.819-2.819zm-13.181 0H16c.533 0 .914.457.914.914s-.381.914-.914.914H8.533c-.533 0-.914-.457-.914-.914s.381-.914.914-.914zm14.096 27.276c0 .533-.457.914-.914.914H2.82c-.533 0-.914-.457-.914-.914V4.724c0-.533.457-.914.914-.914h3.048c.381 1.067 1.448 1.905 2.667 1.905h7.467a2.792 2.792 0 0 0 2.667-1.905h3.048c.533 0 .914.457.914.914v24.457zM9.676 15.314l-3.124 3.124-1.219-1.219c-.381-.381-.99-.381-1.295 0-.381.381-.381.99 0 1.295l1.905 1.905c.152.152.457.305.686.305s.457-.076.686-.305l3.733-3.733c.381-.381.381-.99 0-1.295-.381-.457-.99-.457-1.371-.076zm0 7.543l-3.048 3.048-1.219-1.219c-.381-.381-.99-.381-1.295 0-.381.381-.381.99 0 1.295l1.905 1.905c.152.229.381.305.61.305s.457-.076.686-.305l3.733-3.733c.381-.381.381-.99 0-1.295a.965.965 0 0 0-1.371 0zm-5.562-9.981c.381.381.99.381 1.295 0l1.219-1.219 1.219 1.219c.381.381.99.381 1.295 0 .381-.381.381-.99 0-1.295l-1.219-1.219 1.219-1.219c.381-.381.381-.99 0-1.295-.381-.381-.99-.381-1.295 0L6.628 9.067 5.409 7.848c-.381-.381-.99-.381-1.295 0-.381.381-.381.99 0 1.295l1.219 1.219-1.219 1.219c-.381.381-.381.99 0 1.295zM19.81 7.543H16c-.533 0-.914.457-.914.914 0 .533.457.914.914.914h3.81c.533 0 .914-.381.914-.914 0-.457-.381-.914-.914-.914zm0 3.733h-5.714c-.533 0-.914.457-.914.914s.457.914.914.914h5.714c.533 0 .914-.457.914-.914s-.381-.914-.914-.914zm0 3.81H16c-.533 0-.914.457-.914.914 0 .533.457.914.914.914h3.81c.533 0 .914-.457.914-.914 0-.533-.381-.914-.914-.914zm0 3.733h-5.714c-.533 0-.914.381-.914.914s.457.914.914.914h5.714c.533 0 .914-.457.914-.914 0-.533-.381-.914-.914-.914zm0 3.733H16c-.533 0-.914.457-.914.914 0 .533.457.914.914.914h3.81c.533 0 .914-.457.914-.914s-.381-.914-.914-.914zm0 3.734h-5.714c-.533 0-.914.457-.914.914 0 .533.457.914.914.914h5.714c.533 0 .914-.457.914-.914s-.381-.914-.914-.914z"></path></g></svg>