<svg xmlns="http://www.w3.org/2000/svg" viewBox="0 0 42 43"><g fill="none" class="nc-icon-wrapper"><path fill-rule="evenodd" clip-rule="evenodd" d="M21.005 2.075a1.42 1.42 0 0 0-.15.245l-1.06 2.12a2.166 2.166 0 0 1-.654.75c-.238.176-.55.34-.897.405l-.02.004-1.925.32c-.116.02-.2.044-.258.067.033.051.085.119.166.2l1.469 1.468c.292.277.462.634.552.941a2.174 2.174 0 0 1 .045 1.087l-.418 1.833-.001.004c-.03.13-.045.235-.05.317.076-.03.171-.075.286-.143l.003-.002 1.79-1.055a2.138 2.138 0 0 1 1.107-.293c.345 0 .751.076 1.107.293l1.79 1.055.003.002c.115.068.21.113.287.143a2.028 2.028 0 0 0-.05-.317l-.002-.004-.418-1.833-.001-.005a2.146 2.146 0 0 1 .047-1.077c.094-.317.267-.661.54-.935L25.8 6.157c.078-.076.128-.14.159-.187a1.164 1.164 0 0 0-.262-.07l-.002-.001-1.905-.317a2.092 2.092 0 0 1-.932-.397 2.13 2.13 0 0 1-.658-.775l-1.052-2.104-.002-.003a1.366 1.366 0 0 0-.142-.228zM20.993 0c.936-.006 1.579.692 1.938 1.4l.003.005 1.06 2.12.003.006.002.002a.308.308 0 0 0 .094.071l.011.002 1.918.32h.001c.789.13 1.611.545 1.895 1.407.285.87-.141 1.688-.715 2.25l-1.491 1.492a.37.37 0 0 0-.054.163v.004l.416 1.824v.002c.19.816.193 1.89-.638 2.495-.828.603-1.85.275-2.565-.15h-.002l-1.796-1.059c-.002 0-.004-.002-.005-.003h-.004a.32.32 0 0 0-.152 0l-.005.003-1.797 1.058-.001.001c-.716.425-1.737.754-2.565.15-.831-.604-.828-1.68-.638-2.495v-.002l.416-1.824v-.008a.38.38 0 0 0-.041-.147 1.872 1.872 0 0 1-.008-.007l-1.48-1.48c-.559-.56-1.002-1.376-.72-2.25.284-.874 1.12-1.277 1.905-1.404h.003l1.886-.315a.458.458 0 0 0 .146-.103l.002-.002 1.05-2.1C19.424.71 20.06.005 20.994 0zm-.087 12.353zm.168 0zm-7.754 9.36c0-2.753 2.248-5 5-5h5.34c2.776 0 5 2.25 5 5v9H37c2.752 0 5 2.247 5 5v6a1 1 0 0 1-1 1H1a1 1 0 0 1-1-1v-12c0-2.753 2.248-5 5-5h8.32v-3zm0 5H5c-1.648 0-3 1.352-3 3v11h11.32v-14zm2.02 14v-15c0-.069-.007-.136-.02-.2v-3.8c0-1.648 1.352-3 3-3h5.34c1.665 0 3 1.349 3 3v19H15.34zm13.32 0H40v-5c0-1.648-1.352-3-3-3h-8.34v8z" fill="currentColor"></path></g></svg>