<svg xmlns="http://www.w3.org/2000/svg" viewBox="0 0 32 32"><g fill="currentColor" class="nc-icon-wrapper"><path fill="currentColor" d="M27.276 5.638h3.733c.533 0 .914-.457.914-.914V.914C31.999.381 31.542 0 31.085 0h-3.733c-.533 0-.914.381-.914.914v.914h-7.771C18.286.761 17.219-.001 16-.001s-2.286.762-2.667 1.905H5.638v-.99C5.638.381 5.181 0 4.724 0H.914C.381 0 0 .381 0 .914v3.733c0 .533.381.914.914.914h3.733c.533 0 .914-.457.914-.914v-.914h7.695c.229.61.61 1.067 1.067 1.371l-1.905 2.362h-9.6c-1.524 0-2.819 1.295-2.819 2.819v15.162c0 1.524 1.295 2.819 2.819 2.819h8.838l.914 1.905h-2.21c-.533 0-.914.457-.914.914 0 .533.457.914.914.914h11.276c.533 0 .914-.457.914-.914 0-.533-.457-.914-.914-.914h-2.21l.914-1.905h8.838c1.524 0 2.819-1.295 2.819-2.819V10.285c0-1.524-1.295-2.819-2.819-2.819h-9.752l-1.905-2.362a2.368 2.368 0 0 0 1.067-1.371h7.695v.914c.076.533.533.99.99.99zm.991-3.733h1.905V3.81h-1.905V1.905zM3.733 3.733H1.904V1.904h1.905v1.829h-.076zM16 1.905c.533 0 .914.457.914.914s-.381.914-.914.914-.914-.457-.914-.914.381-.914.914-.914zm.914 12.19c0 .533-.457.914-.914.914-.533 0-.914-.457-.914-.914 0-.533.457-.914.914-.914.533-.076.914.381.914.914zM1.905 10.286c0-.533.457-.914.914-.914h8.229l-3.276 4.114c-.229.305-.305.838 0 1.143l3.733 5.029c-.99.686-1.676 1.752-1.981 2.971H1.905V10.286zm12.19 10.438h3.733c1.219 0 2.286.838 2.667 1.905h-8.99c.381-1.143 1.448-1.905 2.59-1.905zm3.2 9.371h-2.59l-.914-1.905h4.495l-.99 1.905zm12.8-4.647c0 .533-.457.914-.914.914H2.819c-.533 0-.914-.457-.914-.914v-.914h28.267v.914h-.076zm-.914-16.077c.533 0 .914.457.914.914v12.343h-7.619c-.229-1.219-.914-2.286-1.981-2.971l3.733-5.029c.229-.305.229-.838 0-1.143l-3.276-4.114h8.229zm-6.857 4.724l-3.581 4.8c-.305-.076-.61-.076-.838-.076h-3.733c-.305 0-.61 0-.838.076l-3.581-4.8 5.41-6.705v4.038c-1.067.381-1.905 1.448-1.905 2.667 0 1.524 1.295 2.819 2.819 2.819s2.819-1.295 2.819-2.819a2.792 2.792 0 0 0-1.905-2.667V7.39l5.333 6.705z"></path></g></svg>