<svg height="32" viewBox="0 0 32 32" width="32" xmlns="http://www.w3.org/2000/svg"><path d="m16 3.717c-4.374 0-7.919 3.546-7.919 7.919s3.546 7.919 7.919 7.919c4.374 0 7.919-3.545 7.919-7.919s-3.545-7.919-7.919-7.919zm-10.182 7.919c0-5.623 4.559-10.182 10.182-10.182s10.182 4.559 10.182 10.182-4.559 10.182-10.182 10.182-10.182-4.559-10.182-10.182z"/><path d="m16 22.626c-2.782 0-5.514.679-7.924 1.97s-4.41 3.147-5.802 5.383c-.337.541-1.082.726-1.665.414s-.782-1.005-.446-1.546c1.606-2.58 3.914-4.722 6.694-6.211s5.933-2.273 9.142-2.273 6.362.784 9.142 2.273 5.088 3.631 6.694 6.211c.337.541.137 1.233-.446 1.546s-1.328.127-1.665-.414c-1.392-2.236-3.392-4.092-5.802-5.383s-5.142-1.97-7.924-1.97z"/></svg>